<svg width="120" height="120" viewBox="0 0 120 120" fill="none" xmlns="http://www.w3.org/2000/svg">
<g clip-path="url(#clip0_226_100)">
<path d="M36.1779 50.425L59.482 27.1218L82.7985 50.4373L96.3584 36.8774L59.482 0L22.6179 36.865L36.1779 50.425Z" fill="#808080"/>
<path d="M26.602 59.998L13.0422 46.4382L-0.518158 59.9986L13.0416 73.5584L26.602 59.998Z" fill="#808080"/>
<path d="M36.1779 69.5751L59.482 92.8783L82.7975 69.5637L96.3651 83.1161L96.3584 83.1237L59.482 120L22.617 83.136L22.598 83.117L36.1779 69.5751Z" fill="#808080"/>
<path d="M105.923 73.5645L119.484 60.0042L105.924 46.4444L92.3634 60.0048L105.923 73.5645Z" fill="#808080"/>
<path d="M73.2363 59.9929H73.242L59.482 46.2329L49.3132 56.4017H49.3123L48.1446 57.5703L45.7344 59.9805L45.7155 59.9995L45.7344 60.0194L59.482 73.767L73.242 60.0071L73.2486 59.9995L73.2363 59.9929Z" fill="#808080"/>
</g>
<defs>
<clipPath id="clip0_226_100">
<rect width="120" height="120" fill="white"/>
</clipPath>
</defs>
</svg>
