<svg width="120" height="120" viewBox="0 0 120 120" fill="none" xmlns="http://www.w3.org/2000/svg">
<g clip-path="url(#clip0_226_70)">
<path fill-rule="evenodd" clip-rule="evenodd" d="M60 120C26.8612 120 0 93.1388 0 60C0 26.8612 26.8612 0 60 0C93.1388 0 120 26.8612 120 60C120 93.1388 93.1388 120 60 120ZM89.9775 60.8213L61.8675 15L33.75 60.825L61.8675 77.1488L89.9775 60.8213ZM90 66.06L61.8675 82.3763L33.75 66.0638L61.8675 104.981L90 66.06Z" fill="#4A93FF"/>
<path d="M62.1174 15V48.2625L90.2312 60.825L62.1174 15ZM62.1174 82.38V104.981L90.2499 66.06L62.1174 82.38Z" fill="#1F202B"/>
<path d="M62.1174 77.1488L90.2312 60.825L62.1174 48.27V77.1488Z" fill="#1F202B"/>
<path d="M34 60.825L62.1175 77.1488V48.27L34 60.825Z" fill="#1F202A"/>
</g>
<defs>
<clipPath id="clip0_226_70">
<rect width="120" height="120" fill="white"/>
</clipPath>
</defs>
</svg>
