<svg width="73" height="74" viewBox="0 0 73 74" fill="none" xmlns="http://www.w3.org/2000/svg">
<path d="M63.49 0.0075C63.4982 0.00259238 63.5076 -3.72412e-06 63.5172 1.23621e-05C68.1979 0.00790566 71.9652 3.79466 72.1875 8.255V68.296C72.1875 72.9106 66.7845 75.4101 63.2675 72.4225L58.3725 67.97L57.1912 66.9409C55.9874 65.8924 54.1621 67.0735 54.6254 68.6012C54.9351 69.6223 54.1709 70.6525 53.1039 70.6525H8.4625C3.7875 70.6525 0 67.11 0 62.3975V8.27C0 3.805 3.79 0.015 8.4775 0.015H63.4629C63.4725 0.015 63.4818 0.0124076 63.49 0.0075ZM43.095 18.9343C43.0997 18.9376 43.0973 18.945 43.0916 18.945H43.0172C43.0094 18.945 43.0019 18.9481 42.9963 18.9535L42.8743 19.0733C42.6297 19.3134 42.7352 19.7291 43.0623 19.8313C43.5651 19.9884 44.0475 20.151 44.5098 20.3173C45.9655 20.841 45.4177 21.9209 43.9087 21.5797C42.629 21.2903 41.3638 21.0809 40.1 20.9375C37.21 20.495 34.305 20.73 31.8575 20.9375H31.18C29.6175 20.9375 26.285 21.615 21.8175 23.3975C21.354 23.6001 21.0853 23.1697 21.5117 22.8976C23.1701 21.8397 25.8204 20.4805 29.5623 19.515C29.7827 19.4581 29.8601 19.1809 29.6969 19.0222C29.6458 18.9725 29.5817 18.9435 29.5104 18.9432C28.8991 18.9405 25.7403 19.0241 21.8153 20.8954C19.1803 22.1517 17.2565 24.4794 16.1283 27.1717C14.7344 30.4982 12.9722 35.65 12.2964 41.6538C11.935 44.8638 12.8207 48.2161 15.5214 49.9885C17.3276 51.1738 19.9045 52.2744 23.416 52.5372C24.0873 52.5875 24.7305 52.2717 25.1456 51.7416C25.2591 51.5967 25.3842 51.4378 25.5185 51.2687C26.2814 50.3076 25.8516 48.847 24.7471 48.3123C22.8024 47.371 21.5281 46.2608 20.8014 45.4954C20.5672 45.2488 20.7204 44.9508 21.0059 45.1355C21.0615 45.1715 21.1929 45.235 21.2591 45.235H21.3525C21.4516 45.235 21.5039 45.2817 21.5515 45.3311C21.557 45.3368 21.56 45.3444 21.56 45.3523C21.56 45.3604 21.5632 45.3683 21.5691 45.3739C21.6032 45.4068 21.6382 45.4328 21.6843 45.4458C21.7297 45.4587 21.7775 45.4642 21.8212 45.4822C22.9059 45.9276 23.9729 46.3613 24.855 46.795C26.4175 47.46 28.41 48.135 30.8575 48.58C33.9575 49.035 37.51 49.245 41.56 48.58C43.5525 48.125 45.5575 47.695 47.5625 46.795C48.6606 46.2289 49.2856 47.0844 48.198 47.6704C47.778 47.8966 47.3211 48.1177 46.8253 48.3273C45.8868 48.724 45.4853 49.8838 46.1204 50.6806C46.3722 50.9964 46.6117 51.2895 46.8187 51.5392C47.2505 52.0604 47.9027 52.3534 48.5777 52.3041C48.9076 52.2801 49.2296 52.2486 49.5437 52.2105C53.6309 51.7144 59.7656 38.2101 58.691 34.2357C57.2033 28.7338 55.1937 24.7567 54.5571 23.5698C54.424 23.3215 54.2378 23.1137 54.0087 22.9497C48.9818 19.3495 44.315 19.0239 43.0851 18.9993C43.0506 18.9986 43.0449 18.9494 43.0774 18.9379L43.0896 18.9335C43.0914 18.9329 43.0934 18.9332 43.095 18.9343ZM43.67 33.66C46.015 33.66 47.9025 35.6525 47.9025 38.1C47.9025 40.575 46.0025 42.565 43.67 42.565C41.325 42.565 39.4375 40.5725 39.4375 38.125C39.4375 35.65 41.3375 33.66 43.67 33.66ZM28.5275 33.66C30.8575 33.66 32.7475 35.6525 32.7475 38.1C32.7475 40.575 30.8475 42.565 28.515 42.565C26.17 42.565 24.27 40.5725 24.27 38.125C24.27 35.65 26.17 33.66 28.515 33.66H28.5275Z" fill="#28A8E9"/>
</svg>
