<svg width="161" height="26" viewBox="0 0 161 26" fill="none" xmlns="http://www.w3.org/2000/svg">
<path d="M40 18.6702L45.8883 1.15229H49.6787L55.3525 18.6702H51.8004L50.5608 14.7933H44.8394L43.5759 18.6702H40ZM45.7214 11.8258H49.7741L47.8193 5.55571L45.7214 11.8258Z" fill="#06D6DF"/>
<path d="M56.7681 18.6702V5.96254H59.5812L60.1056 7.56596C61.2976 6.41724 62.5054 5.84289 63.7292 5.84289C64.4126 5.84289 64.8814 5.89075 65.1357 5.98648V9.21724C64.6907 9.16938 64.0788 9.14545 63.3001 9.14545C62.5531 9.14545 61.9253 9.24915 61.4168 9.45656C60.9241 9.64801 60.487 10.015 60.1056 10.5574V18.6702H56.7681Z" fill="#06D6DF"/>
<path d="M66.7089 18.6702V5.96254H69.5219L70.0464 7.56596C71.2384 6.41724 72.4462 5.84289 73.67 5.84289C74.3534 5.84289 74.8222 5.89075 75.0765 5.98648V9.21724C74.6315 9.16938 74.0196 9.14545 73.2409 9.14545C72.4939 9.14545 71.8661 9.24915 71.3576 9.45656C70.8649 9.64801 70.4278 10.015 70.0464 10.5574V18.6702H66.7089Z" fill="#06D6DF"/>
<path d="M76.2921 15.4395V14.2429C76.2921 13.7483 76.3557 13.3016 76.4828 12.9027C76.6258 12.5038 76.8404 12.1369 77.1265 11.8019C77.4125 11.4668 77.794 11.2115 78.2708 11.036C78.7634 10.8446 79.3435 10.7489 80.011 10.7489C80.6308 10.7489 81.2427 10.7568 81.8466 10.7728C82.4665 10.7728 83.0942 10.7648 83.7299 10.7489C83.7458 10.2224 83.7458 9.95114 83.7299 9.93519C83.7299 9.60015 83.6902 9.32892 83.6107 9.12152C83.5472 8.91411 83.4359 8.75456 83.277 8.64288C83.1181 8.5312 82.9432 8.45941 82.7525 8.4275C82.5618 8.39559 82.3234 8.37964 82.0374 8.37964C81.0043 8.37964 79.2323 8.46739 76.7212 8.64288V6.58477C78.1357 6.02636 80.0587 5.73918 82.4903 5.72323C83.9524 5.72323 85.0808 6.03434 85.8755 6.65656C86.6701 7.26283 87.0674 8.31582 87.0674 9.81553V18.6702H84.4213L83.7299 17.2822C83.6664 17.3939 83.4598 17.5694 83.1101 17.8087C82.7764 18.032 82.2996 18.2634 81.6798 18.5027C81.0599 18.7261 80.456 18.8298 79.868 18.8138C78.7237 18.7819 77.8416 18.4389 77.2218 17.7848C76.602 17.1147 76.2921 16.3329 76.2921 15.4395ZM79.6296 14.9608C79.6296 15.4395 79.7329 15.7585 79.9395 15.9181C80.1461 16.0617 80.4401 16.1335 80.8216 16.1335C81.0123 16.1335 81.2109 16.1175 81.4175 16.0856C81.6241 16.0377 81.8149 15.9899 81.9897 15.942C82.1804 15.8782 82.3632 15.8144 82.538 15.7506C82.7128 15.6708 82.8717 15.599 83.0148 15.5352C83.1578 15.4554 83.277 15.3916 83.3724 15.3437C83.4836 15.2799 83.571 15.2321 83.6346 15.2001C83.6982 15.1523 83.7299 15.1283 83.7299 15.1283V12.807L80.6547 13.0463C80.4481 13.0623 80.2733 13.1181 80.1302 13.2138C79.9872 13.2936 79.8759 13.3973 79.7965 13.5249C79.7329 13.6526 79.6852 13.7802 79.6534 13.9078C79.6375 14.0355 79.6296 14.1791 79.6296 14.3386V14.9608Z" fill="#06D6DF"/>
<path d="M88.3203 5.96254H91.8247L94.0179 14.8651C94.0497 14.9927 94.0894 15.1124 94.1371 15.2241C94.2007 15.3358 94.2722 15.4235 94.3516 15.4873C94.4311 15.5511 94.5026 15.607 94.5662 15.6548C94.6298 15.6868 94.7013 15.7187 94.7807 15.7506C94.8761 15.7665 94.9476 15.7745 94.9953 15.7745C95.043 15.7745 95.0986 15.7825 95.1622 15.7984C95.2416 15.7984 95.2814 15.7984 95.2814 15.7984L97.8083 5.96254H101.289L96.9024 22.6907L95.1622 25.1318H92.7782L94.5662 18.6702C92.6273 18.6702 91.3717 17.5933 90.7996 15.4395L88.3203 5.96254Z" fill="#06D6DF"/>
<path d="M102.889 7.03947V5.53178C102.889 4.86169 102.969 4.2634 103.127 3.73691C103.286 3.21041 103.501 2.77964 103.771 2.4446C104.041 2.10956 104.375 1.83833 104.772 1.63092C105.186 1.40756 105.615 1.256 106.06 1.17622C106.521 1.0805 107.037 1.02466 107.609 1.0087C108.817 0.976794 110.065 1.03263 111.352 1.17622C112.639 1.31981 113.641 1.49531 114.356 1.70272V4.3352C112.544 4.17565 110.597 4.09588 108.515 4.09588C107.673 4.07993 107.077 4.17565 106.727 4.38306C106.393 4.57451 106.227 5.04517 106.227 5.79502V6.65656C106.227 7.32665 106.362 7.77337 106.632 7.99673C106.902 8.22009 107.387 8.33177 108.086 8.33177H110.851C111.265 8.33177 111.646 8.37166 111.996 8.45143C112.361 8.5312 112.671 8.64288 112.925 8.78647C113.196 8.93006 113.434 9.09758 113.641 9.28904C113.863 9.48049 114.046 9.69587 114.189 9.93519C114.348 10.1745 114.475 10.4218 114.57 10.6771C114.682 10.9164 114.761 11.1717 114.809 11.4429C114.872 11.7141 114.912 11.9774 114.928 12.2326C114.96 12.4719 114.976 12.7192 114.976 12.9745V14.1472C114.976 14.913 114.88 15.583 114.689 16.1574C114.499 16.7318 114.252 17.1865 113.95 17.5215C113.664 17.8566 113.299 18.1278 112.854 18.3352C112.425 18.5426 111.996 18.6782 111.567 18.742C111.137 18.8218 110.669 18.8617 110.16 18.8617C107.283 18.8617 105.035 18.6224 103.414 18.1437V15.5113C105.162 15.6868 107.188 15.7745 109.493 15.7745C109.795 15.7745 110.049 15.7585 110.255 15.7266C110.478 15.6947 110.7 15.6309 110.923 15.5352C111.161 15.4395 111.336 15.2879 111.447 15.0805C111.575 14.8571 111.638 14.5859 111.638 14.2668V13.3335C111.638 12.7751 111.527 12.3603 111.304 12.089C111.082 11.8178 110.669 11.6822 110.065 11.6822H107.395C104.391 11.6662 102.889 10.1187 102.889 7.03947Z" fill="#06D6DF"/>
<path d="M116.14 5.96254H119.716L122.243 14.7454L124.508 5.96254H127.845L126.963 9.38476L129.061 14.7454L131.564 5.96254H135.14L131.04 18.6702H127.321L125.413 14.0754L123.983 18.6702H120.193L116.14 5.96254Z" fill="#06D6DF"/>
<path d="M136.193 15.4395V14.2429C136.193 13.7483 136.256 13.3016 136.384 12.9027C136.527 12.5038 136.741 12.1369 137.027 11.8019C137.313 11.4668 137.695 11.2115 138.172 11.036C138.664 10.8446 139.244 10.7489 139.912 10.7489C140.532 10.7489 141.143 10.7568 141.747 10.7728C142.367 10.7728 142.995 10.7648 143.631 10.7489C143.647 10.2224 143.647 9.95114 143.631 9.93519C143.631 9.60015 143.591 9.32892 143.512 9.12152C143.448 8.91411 143.337 8.75456 143.178 8.64288C143.019 8.5312 142.844 8.45941 142.653 8.4275C142.463 8.39559 142.224 8.37964 141.938 8.37964C140.905 8.37964 139.133 8.46739 136.622 8.64288V6.58477C138.036 6.02636 139.959 5.73918 142.391 5.72323C143.853 5.72323 144.982 6.03434 145.776 6.65656C146.571 7.26283 146.968 8.31582 146.968 9.81553V18.6702H144.322L143.631 17.2822C143.567 17.3939 143.361 17.5694 143.011 17.8087C142.677 18.032 142.2 18.2634 141.581 18.5027C140.961 18.7261 140.357 18.8298 139.769 18.8138C138.624 18.7819 137.742 18.4389 137.123 17.7848C136.503 17.1147 136.193 16.3329 136.193 15.4395ZM139.53 14.9608C139.53 15.4395 139.634 15.7585 139.84 15.9181C140.047 16.0617 140.341 16.1335 140.722 16.1335C140.913 16.1335 141.112 16.1175 141.318 16.0856C141.525 16.0377 141.716 15.9899 141.89 15.942C142.081 15.8782 142.264 15.8144 142.439 15.7506C142.614 15.6708 142.772 15.599 142.916 15.5352C143.059 15.4554 143.178 15.3916 143.273 15.3437C143.384 15.2799 143.472 15.2321 143.535 15.2001C143.599 15.1523 143.631 15.1283 143.631 15.1283V12.807L140.555 13.0463C140.349 13.0623 140.174 13.1181 140.031 13.2138C139.888 13.2936 139.777 13.3973 139.697 13.5249C139.634 13.6526 139.586 13.7802 139.554 13.9078C139.538 14.0355 139.53 14.1791 139.53 14.3386V14.9608Z" fill="#06D6DF"/>
<path d="M148.912 25.1318V5.96254H151.654L152.226 7.23092C152.687 6.86397 153.267 6.5369 153.966 6.24972C154.682 5.96254 155.381 5.81896 156.064 5.81896C156.684 5.81896 157.224 5.92266 157.685 6.13006C158.162 6.33747 158.551 6.62465 158.853 6.9916C159.171 7.35855 159.433 7.81325 159.64 8.3557C159.847 8.89815 159.99 9.48847 160.069 10.1266C160.149 10.7648 160.188 11.4748 160.188 12.2566C160.188 12.9107 160.165 13.501 160.117 14.0275C160.085 14.554 160.014 15.0805 159.902 15.607C159.791 16.1175 159.632 16.5642 159.426 16.9472C159.235 17.3301 158.988 17.6731 158.687 17.9762C158.4 18.2634 158.035 18.4867 157.59 18.6463C157.145 18.7899 156.636 18.8617 156.064 18.8617C155.492 18.8617 154.848 18.7899 154.133 18.6463C153.418 18.4867 152.782 18.2873 152.226 18.048V25.1318H148.912ZM152.226 15.7506C153.052 16.0697 154.046 16.2292 155.206 16.2292C155.587 16.2292 155.889 16.1415 156.112 15.966C156.334 15.7745 156.509 15.3916 156.636 14.8172C156.779 14.2429 156.851 13.4372 156.851 12.4001C156.851 11.0281 156.716 10.0708 156.446 9.52835C156.175 8.96995 155.762 8.69075 155.206 8.69075C154.03 8.69075 153.037 8.94602 152.226 9.45656V15.7506Z" fill="#06D6DF"/>
<path d="M0 20.9801V5.08954C0 4.46731 0.0635713 3.90093 0.190714 3.39039C0.317857 2.8639 0.524464 2.38526 0.810535 1.9545C1.1125 1.52373 1.53366 1.18868 2.07402 0.949369C2.61437 0.710052 3.26598 0.590393 4.02883 0.590393H6.05517V3.41432H4.81553C4.33874 3.41432 3.97321 3.58982 3.71892 3.94082C3.46464 4.27586 3.3375 4.79438 3.3375 5.49637V20.8605C3.3375 22.2485 3.83017 22.9425 4.81553 22.9425H6.05517V25.7664H4.02883C3.34544 25.7664 2.74946 25.6548 2.24089 25.4314C1.74821 25.224 1.35884 24.9607 1.07277 24.6417C0.802588 24.3385 0.580089 23.9556 0.405267 23.4929C0.230446 23.0462 0.119196 22.6234 0.0715177 22.2246C0.0238392 21.8417 0 21.4268 0 20.9801Z" fill="#FA02FF"/>
<path d="M34.2966 20.9801V5.08954C34.2966 4.46731 34.2331 3.90093 34.1059 3.39039C33.9788 2.8639 33.7722 2.38526 33.4861 1.9545C33.1841 1.52373 32.763 1.18868 32.2226 0.949369C31.6823 0.710052 31.0307 0.590393 30.2678 0.590393H28.2415V3.41432H29.4811C29.9579 3.41432 30.3234 3.58982 30.5777 3.94082C30.832 4.27586 30.9591 4.79438 30.9591 5.49637V20.8605C30.9591 22.2485 30.4665 22.9425 29.4811 22.9425H28.2415V25.7664H30.2678C30.9512 25.7664 31.5472 25.6548 32.0557 25.4314C32.5484 25.224 32.9378 24.9607 33.2239 24.6417C33.494 24.3385 33.7165 23.9556 33.8914 23.4929C34.0662 23.0462 34.1774 22.6234 34.2251 22.2246C34.2728 21.8417 34.2966 21.4268 34.2966 20.9801Z" fill="#FA02FF"/>
<path d="M17.5457 2.12726C11.6971 2.12726 6.95044 6.89231 6.95044 12.7635C6.95044 18.6347 11.6971 23.3998 17.5457 23.3998C23.3942 23.3998 28.1409 18.6347 28.1409 12.7635C28.1409 6.89231 23.3942 2.12726 17.5457 2.12726ZM17.5457 21.2725C12.8732 21.2725 9.06948 17.4541 9.06948 12.7635C9.06948 8.07293 12.8732 4.25451 17.5457 4.25451C22.2182 4.25451 26.0218 8.07293 26.0218 12.7635C26.0218 17.4541 22.2182 21.2725 17.5457 21.2725ZM20.7242 6.91358V9.57265H16.4861V11.6999H20.7242V14.359L24.4326 10.6363L20.7242 6.91358ZM14.3671 11.1681L10.6588 14.8908L14.3671 18.6135V15.9544H18.6052V13.8272H14.3671V11.1681Z" fill="#FA02FF"/>
</svg>
