<svg width="120" height="120" viewBox="0 0 120 120" fill="none" xmlns="http://www.w3.org/2000/svg">
<path d="M30.36 7.79393C29.628 8.07593 29.352 8.20193 28.686 8.60393C28.338 8.81393 27.39 9.36593 26.58 9.83993C25.77 10.3139 24.666 10.9619 24.12 11.2799C23.574 11.5979 22.47 12.2459 21.66 12.7199C20.85 13.1939 19.746 13.8419 19.2 14.1599C18.252 14.7179 17.022 15.4379 14.64 16.8299C13.452 17.5259 11.808 18.4859 9.87003 19.6199C9.21003 20.0099 7.54803 20.9759 6.18003 21.7799C4.81203 22.5779 3.48603 23.3579 3.22803 23.5019C1.74003 24.3899 0.690029 25.8299 0.192029 27.6899L0.0300293 28.2899V44.2199V60.1499L0.198029 60.7499C0.534029 61.9439 1.05003 62.9099 1.86603 63.8759C2.51403 64.6379 3.19803 65.1659 4.56003 65.9519C4.87203 66.1319 5.65803 66.5879 6.30003 66.9599C6.94203 67.3319 7.78203 67.8179 8.16003 68.0399C8.92203 68.4779 13.116 70.9139 14.91 71.9579C15.54 72.3239 16.2 72.7079 16.38 72.8099C16.56 72.9119 17.238 73.3079 17.88 73.6799C18.522 74.0519 19.362 74.5379 19.74 74.7599C20.118 74.9819 21.216 75.6119 22.17 76.1699C23.13 76.7279 24.222 77.3579 24.6 77.5799C24.978 77.8019 25.818 78.2879 26.46 78.6599C29.646 80.5139 29.814 80.5979 30.834 80.8559C32.406 81.2579 34.278 81.1079 35.892 80.4599C36.222 80.3279 37.212 79.7999 38.118 79.2719C39.69 78.3539 40.776 77.7239 45.12 75.1919C46.224 74.5499 47.7 73.6919 48.39 73.2899C52.206 71.0639 53.376 70.3919 57.9 67.7699C60.624 66.1919 63.102 64.7579 63.402 64.5779C63.708 64.4039 64.224 64.1039 64.542 63.9239C64.866 63.7379 65.7 63.2519 66.39 62.8499C67.782 62.0399 68.826 61.4339 75.57 57.5099C78.114 56.0279 80.814 54.4559 81.57 54.0179C82.332 53.5739 83.112 53.1359 83.31 53.0399C85.26 52.1099 87.762 52.1339 89.94 53.1119C90.12 53.1959 91.5 53.9759 93 54.8519C94.5 55.7279 96.906 57.1259 98.34 57.9599C103.128 60.7439 104.124 61.3319 104.43 61.5599C105.816 62.5859 106.83 64.1459 107.292 65.9759L107.424 66.5099L107.442 75.1499C107.466 84.7559 107.478 84.3719 107.064 85.6139C106.578 87.0719 105.624 88.3859 104.37 89.3339C104.142 89.5079 102.954 90.2459 101.73 90.9719C100.512 91.7039 98.754 92.7479 97.83 93.2999C96.906 93.8519 95.208 94.8599 94.05 95.5499C92.898 96.2339 91.68 96.9599 91.35 97.1579C89.562 98.2439 88.44 98.5679 86.706 98.5019C85.824 98.4719 85.338 98.3939 84.57 98.1599C83.562 97.8479 83.748 97.9499 76.29 93.6119C73.278 91.8599 72.246 91.2599 70.95 90.5099C70.224 90.0899 69.498 89.6519 69.33 89.5439C67.656 88.4339 66.492 86.6519 66.084 84.5579C65.988 84.0899 65.976 83.4119 65.946 78.6299L65.91 73.2239L60.24 76.5119C57.12 78.3239 54.456 79.8599 54.312 79.9319L54.054 80.0639L54.078 85.8899L54.096 91.7099L54.252 92.2799C54.786 94.1999 55.89 95.7539 57.492 96.8279C57.732 96.9899 58.374 97.3799 58.92 97.6919C59.466 98.0099 60.342 98.5139 60.87 98.8199C61.398 99.1319 61.98 99.4679 62.16 99.5699C62.34 99.6719 63.018 100.068 63.66 100.44C64.302 100.812 65.142 101.298 65.52 101.52C65.898 101.742 66.996 102.372 67.95 102.93C68.91 103.488 70.002 104.118 70.38 104.34C70.758 104.562 71.598 105.048 72.24 105.42C72.882 105.792 73.56 106.188 73.74 106.29C73.92 106.392 74.598 106.788 75.24 107.16C75.882 107.532 76.722 108.018 77.1 108.24C77.478 108.462 78.468 109.032 79.29 109.512C80.118 109.986 81.306 110.676 81.93 111.042C84.294 112.416 83.934 112.32 86.796 112.32C89.91 112.32 89.202 112.566 93.78 109.908C94.488 109.494 96.018 108.612 97.17 107.94C98.328 107.268 99.852 106.386 100.56 105.972C101.268 105.564 103.026 104.544 104.46 103.71C105.894 102.876 107.91 101.712 108.93 101.118C109.956 100.524 111.966 99.3539 113.4 98.5259C114.834 97.6919 116.202 96.8879 116.43 96.7319C116.976 96.3719 117.978 95.3699 118.362 94.7999C118.926 93.9599 119.298 93.0899 119.562 92.0099C119.658 91.6199 119.67 90.4739 119.688 75.8999C119.7 64.9259 119.682 60.0599 119.64 59.7119C119.442 58.1699 118.662 56.5919 117.534 55.4339C116.844 54.7319 116.34 54.3719 114.84 53.5019C114.132 53.0939 113.04 52.4639 112.41 52.0979C111.786 51.7319 110.676 51.0899 109.95 50.6699C109.224 50.2499 108.12 49.6079 107.49 49.2419C106.866 48.8759 106.038 48.4019 105.66 48.1799C105.054 47.8259 103.704 47.0459 98.4 43.9679C97.692 43.5539 96.168 42.6659 95.01 41.9999C89.988 39.0779 89.946 39.0599 88.968 38.7959C87.126 38.3039 85.026 38.5319 83.262 39.4139C82.956 39.5639 81.714 40.2839 80.49 41.0039C79.272 41.7299 77.76 42.6239 77.13 42.9899C76.506 43.3619 75.222 44.1179 74.28 44.6699C73.338 45.2219 71.826 46.1159 70.92 46.6499C70.014 47.1839 68.502 48.0779 67.56 48.6299C65.85 49.6379 65.19 50.0159 62.37 51.5699C61.548 52.0259 60.522 52.5899 60.09 52.8299C59.664 53.0699 58.512 53.7059 57.54 54.2399C56.568 54.7799 55.284 55.4879 54.69 55.8179C54.096 56.1479 49.752 58.7339 45.03 61.5599C40.314 64.3919 36.288 66.7859 36.09 66.8879C35.178 67.3379 34.122 67.5719 32.97 67.5779C32.1 67.5779 31.476 67.4999 30.72 67.2839C29.556 66.9479 29.67 67.0139 24 63.5819C23.292 63.1559 21.942 62.3399 21 61.7699C14.7 57.9659 14.946 58.1219 14.31 57.5279C13.206 56.4959 12.414 55.0799 12.048 53.4719L11.916 52.8899L11.892 44.7899C11.88 39.6599 11.898 36.4019 11.934 35.9099C12.084 33.9719 12.798 32.4119 14.172 31.0319C14.814 30.3839 15.402 29.9819 17.28 28.8899C19.146 27.8039 21.678 26.3339 23.37 25.3499C27.618 22.8779 29.13 22.0079 29.496 21.8219C31.086 21.0299 33.21 20.8859 35.07 21.4499C35.892 21.6959 36.384 21.9299 37.458 22.5779C38.022 22.9199 39.006 23.5139 39.63 23.8919C43.158 26.0279 45.348 27.3539 47.52 28.6619C50.544 30.4859 50.796 30.6599 51.39 31.2419C52.236 32.0639 52.806 32.9339 53.214 34.0199C53.688 35.2859 53.664 34.8659 53.682 41.2979C53.694 44.4659 53.73 47.0399 53.754 47.0279C53.784 47.0159 56.466 45.4679 59.724 43.5899L65.64 40.1699V34.4999C65.64 28.2899 65.64 28.2779 65.28 27.1619C64.92 26.0339 64.266 24.9839 63.378 24.0959C62.538 23.2619 62.952 23.5199 54.42 18.5099C52.686 17.4899 50.298 16.0859 49.11 15.3899C47.922 14.6879 45.534 13.2839 43.8 12.2699C42.066 11.2499 39.828 9.93593 38.826 9.34792C35.628 7.45792 36.144 7.61993 33.192 7.61993L30.81 7.62592L30.36 7.79393Z" fill="#808080"/>
</svg>
