<svg width="80" height="80" viewBox="0 0 80 80" fill="none" xmlns="http://www.w3.org/2000/svg">
<g clip-path="url(#clip0_222_5)">
<path d="M40 0C29.3937 0 19.2125 4.21688 11.7188 11.7156C4.21727 19.2174 0.00207794 29.3911 0 40C0 50.6044 4.21875 60.7856 11.7188 68.2844C19.2125 75.7831 29.3937 80 40 80C50.6063 80 60.7875 75.7831 68.2812 68.2844C75.7812 60.7856 80 50.6044 80 40C80 29.3956 75.7812 19.2144 68.2812 11.7156C60.7875 4.21688 50.6063 0 40 0Z" fill="url(#paint0_linear_222_5)"/>
<path d="M18.1063 39.5774C29.7688 34.4974 37.5438 31.148 41.4313 29.5299C52.5438 24.9093 54.8501 24.1068 56.3563 24.0796C56.6876 24.0743 57.4251 24.1561 57.9063 24.5452C58.3063 24.8733 58.4188 25.3171 58.4751 25.6286C58.5251 25.9399 58.5938 26.6493 58.5376 27.203C57.9376 33.528 55.3313 48.8768 54.0063 55.9611C53.4501 58.9586 52.3438 59.9636 51.2751 60.0618C48.9501 60.2755 47.1876 58.5268 44.9376 57.0524C41.4188 54.7443 39.4313 53.308 36.0126 51.0561C32.0626 48.4536 34.6251 47.023 36.8751 44.6855C37.4626 44.0736 47.7001 34.7643 47.8938 33.9199C47.9188 33.8143 47.9438 33.4205 47.7063 33.213C47.4751 33.0049 47.1313 33.0761 46.8813 33.1324C46.5251 33.2124 40.9063 36.9299 30.0063 44.2843C28.4126 45.3805 26.9688 45.9149 25.6688 45.8868C24.2438 45.8561 21.4938 45.0793 19.4501 44.4155C16.9501 43.6011 14.9563 43.1705 15.1313 41.7874C15.2188 41.0674 16.2126 40.3305 18.1063 39.5774Z" fill="#1E1F2A"/>
</g>
<defs>
<linearGradient id="paint0_linear_222_5" x1="40" y1="0" x2="40" y2="80" gradientUnits="userSpaceOnUse">
<stop stop-color="#2AABEE"/>
<stop offset="1" stop-color="#229ED9"/>
</linearGradient>
<clipPath id="clip0_222_5">
<rect width="80" height="80" fill="white"/>
</clipPath>
</defs>
</svg>
