<svg width="909" height="137" viewBox="0 0 909 137" fill="none" xmlns="http://www.w3.org/2000/svg">
<g filter="url(#filter0_f_193_64)">
<path d="M54.3062 88.68C50.6342 88.68 47.0755 88.1587 43.6302 87.116C40.2302 86.0733 37.5329 84.6907 35.5382 82.968L38.5982 76.1C40.5475 77.6413 42.9275 78.9107 45.7382 79.908C48.5942 80.86 51.4502 81.336 54.3062 81.336C57.8422 81.336 60.4715 80.7693 62.1942 79.636C63.9622 78.5027 64.8462 77.0067 64.8462 75.148C64.8462 73.788 64.3475 72.6773 63.3502 71.816C62.3982 70.9093 61.1742 70.2067 59.6782 69.708C58.1822 69.2093 56.1422 68.6427 53.5582 68.008C49.9315 67.1467 46.9849 66.2853 44.7182 65.424C42.4969 64.5627 40.5702 63.2253 38.9382 61.412C37.3515 59.5533 36.5582 57.06 36.5582 53.932C36.5582 51.3027 37.2609 48.9227 38.6662 46.792C40.1169 44.616 42.2702 42.8933 45.1262 41.624C48.0275 40.3547 51.5635 39.72 55.7342 39.72C58.6355 39.72 61.4915 40.0827 64.3022 40.808C67.1129 41.5333 69.5382 42.576 71.5782 43.936L68.7902 50.804C66.7049 49.58 64.5289 48.6507 62.2622 48.016C59.9955 47.3813 57.7969 47.064 55.6662 47.064C52.1755 47.064 49.5689 47.6533 47.8462 48.832C46.1689 50.0107 45.3302 51.5747 45.3302 53.524C45.3302 54.884 45.8062 55.9947 46.7582 56.856C47.7555 57.7173 49.0022 58.3973 50.4982 58.896C51.9942 59.3947 54.0342 59.9613 56.6182 60.596C60.1542 61.412 63.0555 62.2733 65.3222 63.18C67.5889 64.0413 69.5155 65.3787 71.1022 67.192C72.7342 69.0053 73.5502 71.4533 73.5502 74.536C73.5502 77.1653 72.8249 79.5453 71.3742 81.676C69.9689 83.8067 67.8155 85.5067 64.9142 86.776C62.0129 88.0453 58.4769 88.68 54.3062 88.68ZM97.8198 88.476C94.1478 88.476 90.8385 87.6827 87.8918 86.096C84.9452 84.5093 82.6332 82.3107 80.9558 79.5C79.3238 76.644 78.5078 73.4253 78.5078 69.844C78.5078 66.2627 79.3238 63.0667 80.9558 60.256C82.6332 57.4453 84.9452 55.2467 87.8918 53.66C90.8385 52.0733 94.1478 51.28 97.8198 51.28C101.537 51.28 104.869 52.0733 107.816 53.66C110.762 55.2467 113.052 57.4453 114.684 60.256C116.361 63.0667 117.2 66.2627 117.2 69.844C117.2 73.4253 116.361 76.644 114.684 79.5C113.052 82.3107 110.762 84.5093 107.816 86.096C104.869 87.6827 101.537 88.476 97.8198 88.476ZM97.8198 81.2C100.948 81.2 103.532 80.1573 105.572 78.072C107.612 75.9867 108.632 73.244 108.632 69.844C108.632 66.444 107.612 63.7013 105.572 61.616C103.532 59.5307 100.948 58.488 97.8198 58.488C94.6918 58.488 92.1078 59.5307 90.0678 61.616C88.0732 63.7013 87.0758 66.444 87.0758 69.844C87.0758 73.244 88.0732 75.9867 90.0678 78.072C92.1078 80.1573 94.6918 81.2 97.8198 81.2ZM171.16 51.28C175.739 51.28 179.365 52.6173 182.04 55.292C184.715 57.9213 186.052 61.888 186.052 67.192V88H177.552V68.28C177.552 65.1067 176.849 62.7267 175.444 61.14C174.039 59.508 172.021 58.692 169.392 58.692C166.536 58.692 164.247 59.644 162.524 61.548C160.801 63.4067 159.94 66.0813 159.94 69.572V88H151.44V68.28C151.44 65.1067 150.737 62.7267 149.332 61.14C147.927 59.508 145.909 58.692 143.28 58.692C140.379 58.692 138.067 59.6213 136.344 61.48C134.667 63.3387 133.828 66.036 133.828 69.572V88H125.328V51.688H133.42V56.312C134.78 54.68 136.48 53.4333 138.52 52.572C140.56 51.7107 142.827 51.28 145.32 51.28C148.04 51.28 150.443 51.8013 152.528 52.844C154.659 53.8413 156.336 55.3373 157.56 57.332C159.056 55.428 160.983 53.9547 163.34 52.912C165.697 51.824 168.304 51.28 171.16 51.28ZM231.382 70.048C231.382 70.6373 231.337 71.476 231.246 72.564H202.754C203.253 75.2387 204.545 77.3693 206.63 78.956C208.761 80.4973 211.39 81.268 214.518 81.268C218.507 81.268 221.794 79.9533 224.378 77.324L228.934 82.56C227.302 84.5093 225.239 85.9827 222.746 86.98C220.253 87.9773 217.442 88.476 214.314 88.476C210.325 88.476 206.811 87.6827 203.774 86.096C200.737 84.5093 198.379 82.3107 196.702 79.5C195.07 76.644 194.254 73.4253 194.254 69.844C194.254 66.308 195.047 63.1347 196.634 60.324C198.266 57.468 200.51 55.2467 203.366 53.66C206.222 52.0733 209.441 51.28 213.022 51.28C216.558 51.28 219.709 52.0733 222.474 53.66C225.285 55.2013 227.461 57.4 229.002 60.256C230.589 63.0667 231.382 66.3307 231.382 70.048ZM213.022 58.08C210.302 58.08 207.99 58.896 206.086 60.528C204.227 62.1147 203.094 64.2453 202.686 66.92H223.29C222.927 64.2907 221.817 62.16 219.958 60.528C218.099 58.896 215.787 58.08 213.022 58.08ZM261.375 86.028C260.377 86.844 259.153 87.456 257.703 87.864C256.297 88.272 254.801 88.476 253.215 88.476C249.225 88.476 246.143 87.4333 243.967 85.348C241.791 83.2627 240.703 80.2253 240.703 76.236V58.76H234.719V51.96H240.703V43.664H249.203V51.96H258.927V58.76H249.203V76.032C249.203 77.8 249.633 79.16 250.495 80.112C251.356 81.0187 252.603 81.472 254.235 81.472C256.139 81.472 257.725 80.9733 258.995 79.976L261.375 86.028ZM288.971 51.28C293.55 51.28 297.222 52.6173 299.987 55.292C302.752 57.9667 304.135 61.9333 304.135 67.192V88H295.635V68.28C295.635 65.1067 294.887 62.7267 293.391 61.14C291.895 59.508 289.764 58.692 286.999 58.692C283.871 58.692 281.4 59.644 279.587 61.548C277.774 63.4067 276.867 66.104 276.867 69.64V88H268.367V37.544H276.867V55.904C278.272 54.408 279.995 53.2747 282.035 52.504C284.12 51.688 286.432 51.28 288.971 51.28ZM314.918 51.688H323.418V88H314.918V51.688ZM319.202 45.704C317.66 45.704 316.368 45.228 315.326 44.276C314.283 43.2787 313.762 42.0547 313.762 40.604C313.762 39.1533 314.283 37.952 315.326 37C316.368 36.0027 317.66 35.504 319.202 35.504C320.743 35.504 322.035 35.98 323.078 36.932C324.12 37.8387 324.642 38.9947 324.642 40.4C324.642 41.896 324.12 43.1653 323.078 44.208C322.08 45.2053 320.788 45.704 319.202 45.704ZM355.178 51.28C359.757 51.28 363.429 52.6173 366.194 55.292C368.959 57.9667 370.342 61.9333 370.342 67.192V88H361.842V68.28C361.842 65.1067 361.094 62.7267 359.598 61.14C358.102 59.508 355.971 58.692 353.206 58.692C350.078 58.692 347.607 59.644 345.794 61.548C343.981 63.4067 343.074 66.104 343.074 69.64V88H334.574V51.688H342.666V56.38C344.071 54.7027 345.839 53.4333 347.97 52.572C350.101 51.7107 352.503 51.28 355.178 51.28ZM417.497 51.688V82.492C417.497 95.276 410.969 101.668 397.913 101.668C394.422 101.668 391.113 101.215 387.985 100.308C384.857 99.4467 382.273 98.1773 380.233 96.5L384.041 90.108C385.628 91.4227 387.622 92.4653 390.025 93.236C392.473 94.052 394.944 94.46 397.437 94.46C401.426 94.46 404.35 93.5533 406.209 91.74C408.068 89.9267 408.997 87.1613 408.997 83.444V81.54C407.546 83.1267 405.778 84.328 403.693 85.144C401.608 85.96 399.318 86.368 396.825 86.368C393.38 86.368 390.252 85.6427 387.441 84.192C384.676 82.696 382.477 80.6107 380.845 77.936C379.258 75.2613 378.465 72.2013 378.465 68.756C378.465 65.3107 379.258 62.2733 380.845 59.644C382.477 56.9693 384.676 54.9067 387.441 53.456C390.252 52.0053 393.38 51.28 396.825 51.28C399.454 51.28 401.834 51.7107 403.965 52.572C406.141 53.4333 407.954 54.748 409.405 56.516V51.688H417.497ZM398.117 79.16C401.336 79.16 403.965 78.208 406.005 76.304C408.09 74.3547 409.133 71.8387 409.133 68.756C409.133 65.7187 408.09 63.248 406.005 61.344C403.965 59.44 401.336 58.488 398.117 58.488C394.853 58.488 392.178 59.44 390.093 61.344C388.053 63.248 387.033 65.7187 387.033 68.756C387.033 71.8387 388.053 74.3547 390.093 76.304C392.178 78.208 394.853 79.16 398.117 79.16ZM463.037 88.68C459.365 88.68 455.806 88.1587 452.361 87.116C448.961 86.0733 446.263 84.6907 444.269 82.968L447.329 76.1C449.278 77.6413 451.658 78.9107 454.469 79.908C457.325 80.86 460.181 81.336 463.037 81.336C466.573 81.336 469.202 80.7693 470.925 79.636C472.693 78.5027 473.577 77.0067 473.577 75.148C473.577 73.788 473.078 72.6773 472.081 71.816C471.129 70.9093 469.905 70.2067 468.409 69.708C466.913 69.2093 464.873 68.6427 462.289 68.008C458.662 67.1467 455.715 66.2853 453.449 65.424C451.227 64.5627 449.301 63.2253 447.669 61.412C446.082 59.5533 445.289 57.06 445.289 53.932C445.289 51.3027 445.991 48.9227 447.397 46.792C448.847 44.616 451.001 42.8933 453.857 41.624C456.758 40.3547 460.294 39.72 464.465 39.72C467.366 39.72 470.222 40.0827 473.033 40.808C475.843 41.5333 478.269 42.576 480.309 43.936L477.521 50.804C475.435 49.58 473.259 48.6507 470.993 48.016C468.726 47.3813 466.527 47.064 464.397 47.064C460.906 47.064 458.299 47.6533 456.577 48.832C454.899 50.0107 454.061 51.5747 454.061 53.524C454.061 54.884 454.537 55.9947 455.489 56.856C456.486 57.7173 457.733 58.3973 459.229 58.896C460.725 59.3947 462.765 59.9613 465.349 60.596C468.885 61.412 471.786 62.2733 474.053 63.18C476.319 64.0413 478.246 65.3787 479.833 67.192C481.465 69.0053 482.281 71.4533 482.281 74.536C482.281 77.1653 481.555 79.5453 480.105 81.676C478.699 83.8067 476.546 85.5067 473.645 86.776C470.743 88.0453 467.207 88.68 463.037 88.68ZM536.062 51.28C540.641 51.28 544.268 52.6173 546.942 55.292C549.617 57.9213 550.954 61.888 550.954 67.192V88H542.454V68.28C542.454 65.1067 541.752 62.7267 540.346 61.14C538.941 59.508 536.924 58.692 534.294 58.692C531.438 58.692 529.149 59.644 527.426 61.548C525.704 63.4067 524.842 66.0813 524.842 69.572V88H516.342V68.28C516.342 65.1067 515.64 62.7267 514.234 61.14C512.829 59.508 510.812 58.692 508.182 58.692C505.281 58.692 502.969 59.6213 501.246 61.48C499.569 63.3387 498.73 66.036 498.73 69.572V88H490.23V51.688H498.322V56.312C499.682 54.68 501.382 53.4333 503.422 52.572C505.462 51.7107 507.729 51.28 510.222 51.28C512.942 51.28 515.345 51.8013 517.43 52.844C519.561 53.8413 521.238 55.3373 522.462 57.332C523.958 55.428 525.885 53.9547 528.242 52.912C530.6 51.824 533.206 51.28 536.062 51.28ZM596.284 70.048C596.284 70.6373 596.239 71.476 596.148 72.564H567.656C568.155 75.2387 569.447 77.3693 571.532 78.956C573.663 80.4973 576.292 81.268 579.42 81.268C583.41 81.268 586.696 79.9533 589.28 77.324L593.836 82.56C592.204 84.5093 590.142 85.9827 587.648 86.98C585.155 87.9773 582.344 88.476 579.216 88.476C575.227 88.476 571.714 87.6827 568.676 86.096C565.639 84.5093 563.282 82.3107 561.604 79.5C559.972 76.644 559.156 73.4253 559.156 69.844C559.156 66.308 559.95 63.1347 561.536 60.324C563.168 57.468 565.412 55.2467 568.268 53.66C571.124 52.0733 574.343 51.28 577.924 51.28C581.46 51.28 584.611 52.0733 587.376 53.66C590.187 55.2013 592.363 57.4 593.904 60.256C595.491 63.0667 596.284 66.3307 596.284 70.048ZM577.924 58.08C575.204 58.08 572.892 58.896 570.988 60.528C569.13 62.1147 567.996 64.2453 567.588 66.92H588.192C587.83 64.2907 586.719 62.16 584.86 60.528C583.002 58.896 580.69 58.08 577.924 58.08ZM604.449 37.544H612.949V88H604.449V37.544ZM624.105 37.544H632.605V88H624.105V37.544ZM654.982 88.476C652.035 88.476 649.156 88.0907 646.346 87.32C643.535 86.5493 641.291 85.5747 639.614 84.396L642.878 77.936C644.51 79.024 646.459 79.908 648.726 80.588C651.038 81.2227 653.304 81.54 655.526 81.54C660.603 81.54 663.142 80.2027 663.142 77.528C663.142 76.2587 662.484 75.3747 661.17 74.876C659.9 74.3773 657.838 73.9013 654.982 73.448C651.99 72.9947 649.542 72.4733 647.638 71.884C645.779 71.2947 644.147 70.2747 642.742 68.824C641.382 67.328 640.702 65.2653 640.702 62.636C640.702 59.1907 642.13 56.448 644.986 54.408C647.887 52.3227 651.786 51.28 656.682 51.28C659.175 51.28 661.668 51.5747 664.162 52.164C666.655 52.708 668.695 53.456 670.282 54.408L667.018 60.868C663.935 59.0547 660.467 58.148 656.614 58.148C654.12 58.148 652.216 58.5333 650.902 59.304C649.632 60.0293 648.998 61.004 648.998 62.228C648.998 63.588 649.678 64.5627 651.038 65.152C652.443 65.696 654.596 66.2173 657.498 66.716C660.399 67.1693 662.779 67.6907 664.638 68.28C666.496 68.8693 668.083 69.8667 669.398 71.272C670.758 72.6773 671.438 74.672 671.438 77.256C671.438 80.656 669.964 83.376 667.018 85.416C664.071 87.456 660.059 88.476 654.982 88.476ZM730.871 63.656H739.235V82.628C736.787 84.5773 733.931 86.0733 730.667 87.116C727.403 88.1587 724.048 88.68 720.603 88.68C715.752 88.68 711.377 87.6373 707.479 85.552C703.58 83.4213 700.52 80.4973 698.299 76.78C696.077 73.0627 694.967 68.8693 694.967 64.2C694.967 59.5307 696.077 55.3373 698.299 51.62C700.52 47.9027 703.58 45.0013 707.479 42.916C711.423 40.7853 715.843 39.72 720.739 39.72C724.728 39.72 728.355 40.3773 731.619 41.692C734.883 43.0067 737.625 44.9333 739.847 47.472L734.271 52.912C730.644 49.2853 726.269 47.472 721.147 47.472C717.792 47.472 714.8 48.1747 712.171 49.58C709.587 50.9853 707.547 52.9573 706.051 55.496C704.6 58.0347 703.875 60.936 703.875 64.2C703.875 67.3733 704.6 70.2293 706.051 72.768C707.547 75.3067 709.587 77.3013 712.171 78.752C714.8 80.2027 717.769 80.928 721.079 80.928C724.796 80.928 728.06 80.112 730.871 78.48V63.656ZM766.398 88.476C762.726 88.476 759.417 87.6827 756.47 86.096C753.523 84.5093 751.211 82.3107 749.534 79.5C747.902 76.644 747.086 73.4253 747.086 69.844C747.086 66.2627 747.902 63.0667 749.534 60.256C751.211 57.4453 753.523 55.2467 756.47 53.66C759.417 52.0733 762.726 51.28 766.398 51.28C770.115 51.28 773.447 52.0733 776.394 53.66C779.341 55.2467 781.63 57.4453 783.262 60.256C784.939 63.0667 785.778 66.2627 785.778 69.844C785.778 73.4253 784.939 76.644 783.262 79.5C781.63 82.3107 779.341 84.5093 776.394 86.096C773.447 87.6827 770.115 88.476 766.398 88.476ZM766.398 81.2C769.526 81.2 772.11 80.1573 774.15 78.072C776.19 75.9867 777.21 73.244 777.21 69.844C777.21 66.444 776.19 63.7013 774.15 61.616C772.11 59.5307 769.526 58.488 766.398 58.488C763.27 58.488 760.686 59.5307 758.646 61.616C756.651 63.7013 755.654 66.444 755.654 69.844C755.654 73.244 756.651 75.9867 758.646 78.072C760.686 80.1573 763.27 81.2 766.398 81.2ZM810.226 88.476C806.554 88.476 803.245 87.6827 800.298 86.096C797.351 84.5093 795.039 82.3107 793.362 79.5C791.73 76.644 790.914 73.4253 790.914 69.844C790.914 66.2627 791.73 63.0667 793.362 60.256C795.039 57.4453 797.351 55.2467 800.298 53.66C803.245 52.0733 806.554 51.28 810.226 51.28C813.943 51.28 817.275 52.0733 820.222 53.66C823.169 55.2467 825.458 57.4453 827.09 60.256C828.767 63.0667 829.606 66.2627 829.606 69.844C829.606 73.4253 828.767 76.644 827.09 79.5C825.458 82.3107 823.169 84.5093 820.222 86.096C817.275 87.6827 813.943 88.476 810.226 88.476ZM810.226 81.2C813.354 81.2 815.938 80.1573 817.978 78.072C820.018 75.9867 821.038 73.244 821.038 69.844C821.038 66.444 820.018 63.7013 817.978 61.616C815.938 59.5307 813.354 58.488 810.226 58.488C807.098 58.488 804.514 59.5307 802.474 61.616C800.479 63.7013 799.482 66.444 799.482 69.844C799.482 73.244 800.479 75.9867 802.474 78.072C804.514 80.1573 807.098 81.2 810.226 81.2ZM873.298 37.544V88H865.138V83.308C863.733 85.0307 861.988 86.3227 859.902 87.184C857.862 88.0453 855.596 88.476 853.102 88.476C849.612 88.476 846.461 87.7053 843.65 86.164C840.885 84.6227 838.709 82.4467 837.122 79.636C835.536 76.78 834.742 73.516 834.742 69.844C834.742 66.172 835.536 62.9307 837.122 60.12C838.709 57.3093 840.885 55.1333 843.65 53.592C846.461 52.0507 849.612 51.28 853.102 51.28C855.505 51.28 857.704 51.688 859.698 52.504C861.693 53.32 863.393 54.544 864.798 56.176V37.544H873.298ZM854.122 81.2C856.162 81.2 857.998 80.7467 859.63 79.84C861.262 78.888 862.554 77.5507 863.506 75.828C864.458 74.1053 864.934 72.1107 864.934 69.844C864.934 67.5773 864.458 65.5827 863.506 63.86C862.554 62.1373 861.262 60.8227 859.63 59.916C857.998 58.964 856.162 58.488 854.122 58.488C852.082 58.488 850.246 58.964 848.614 59.916C846.982 60.8227 845.69 62.1373 844.738 63.86C843.786 65.5827 843.31 67.5773 843.31 69.844C843.31 72.1107 843.786 74.1053 844.738 75.828C845.69 77.5507 846.982 78.888 848.614 79.84C850.246 80.7467 852.082 81.2 854.122 81.2Z" fill="url(#paint0_linear_193_64)" fill-opacity="0.5"/>
</g>
<defs>
<filter id="filter0_f_193_64" x="0.538086" y="0.504028" width="907.76" height="136.164" filterUnits="userSpaceOnUse" color-interpolation-filters="sRGB">
<feFlood flood-opacity="0" result="BackgroundImageFix"/>
<feBlend mode="normal" in="SourceGraphic" in2="BackgroundImageFix" result="shape"/>
<feGaussianBlur stdDeviation="17.5" result="effect1_foregroundBlur_193_64"/>
</filter>
<linearGradient id="paint0_linear_193_64" x1="-201" y1="64" x2="1113" y2="64" gradientUnits="userSpaceOnUse">
<stop stop-color="#FA02FF"/>
<stop offset="1" stop-color="#26BAE3"/>
</linearGradient>
</defs>
</svg>
