<svg width="80" height="80" viewBox="0 0 80 80" fill="none" xmlns="http://www.w3.org/2000/svg">
<path d="M40 0C17.9107 0 0 17.9107 0 40C0 62.0893 17.9107 80 40 80C62.0893 80 80 62.0893 80 40C80 17.9107 62.0893 0 40 0ZM59.2232 30.1518C59.25 30.5714 59.25 31.0089 59.25 31.4375C59.25 44.5446 49.2679 59.6429 31.0268 59.6429C25.4018 59.6429 20.1875 58.0089 15.7946 55.1964C16.5982 55.2857 17.3661 55.3214 18.1875 55.3214C22.8304 55.3214 27.0982 53.75 30.5 51.0893C26.1429 51 22.4821 48.1429 21.2321 44.2143C22.7589 44.4375 24.1339 44.4375 25.7054 44.0357C23.4618 43.5799 21.4453 42.3615 19.9984 40.5873C18.5514 38.8132 17.7633 36.5929 17.7679 34.3036V34.1786C19.0804 34.9196 20.625 35.375 22.2411 35.4375C20.8825 34.5321 19.7684 33.3055 18.9974 31.8663C18.2265 30.4272 17.8225 28.8201 17.8214 27.1875C17.8214 25.3393 18.3036 23.6518 19.1696 22.1875C21.6598 25.253 24.7672 27.7602 28.2899 29.5461C31.8125 31.332 35.6715 32.3567 39.6161 32.5536C38.2143 25.8125 43.25 20.3571 49.3036 20.3571C52.1607 20.3571 54.7321 21.5536 56.5446 23.4821C58.7857 23.0625 60.9286 22.2232 62.8393 21.0982C62.0982 23.3929 60.5446 25.3304 58.4821 26.5536C60.4821 26.3393 62.4107 25.7857 64.1964 25.0089C62.8482 26.9911 61.1607 28.75 59.2232 30.1518Z" fill="#29A9EB"/>
</svg>
