<svg width="24" height="24" viewBox="0 0 24 24" fill="none" xmlns="http://www.w3.org/2000/svg">
<g clip-path="url(#clip0_325_286)">
<path d="M7.23558 10.085L11.8964 5.42436L16.5597 10.0875L19.2717 7.37547L11.8964 0L4.52359 7.37301L7.23558 10.085Z" fill="#808080"/>
<path d="M5.32039 11.9995L2.60844 9.2876L-0.103635 11.9997L2.60831 14.7116L5.32039 11.9995Z" fill="#808080"/>
<path d="M7.23558 13.9149L11.8964 18.5755L16.5595 13.9126L19.273 16.6231L19.2717 16.6246L11.8964 23.9999L4.5234 16.6271L4.51961 16.6233L7.23558 13.9149Z" fill="#808080"/>
<path d="M21.1846 14.7131L23.8967 12.001L21.1848 9.28903L18.4727 12.0011L21.1846 14.7131Z" fill="#808080"/>
<path d="M14.6473 11.9986H14.6484L11.8964 9.24658L9.86265 11.2803H9.86247L9.62893 11.5141L9.14689 11.9961L9.1431 11.9999L9.14689 12.0039L11.8964 14.7534L14.6484 12.0014L14.6497 11.9999L14.6473 11.9986Z" fill="#808080"/>
</g>
<defs>
<clipPath id="clip0_325_286">
<rect width="24" height="24" fill="white"/>
</clipPath>
</defs>
</svg>
