<svg width="20" height="24" viewBox="0 0 20 24" fill="none" xmlns="http://www.w3.org/2000/svg">
<path d="M6 4V16C6 16.5304 6.21071 17.0391 6.58579 17.4142C6.96086 17.7893 7.46957 18 8 18H16C16.5304 18 17.0391 17.7893 17.4142 17.4142C17.7893 17.0391 18 16.5304 18 16V7.242C18 6.97556 17.9467 6.71181 17.8433 6.46624C17.7399 6.22068 17.5885 5.99824 17.398 5.812L14.083 2.57C13.7094 2.20466 13.2076 2.00007 12.685 2H8C7.46957 2 6.96086 2.21071 6.58579 2.58579C6.21071 2.96086 6 3.46957 6 4V4Z" stroke="#6D7399" stroke-width="2.66667" stroke-linecap="round" stroke-linejoin="round"/>
<path d="M14 18V20C14 20.5304 13.7893 21.0391 13.4142 21.4142C13.0391 21.7893 12.5304 22 12 22H4C3.46957 22 2.96086 21.7893 2.58579 21.4142C2.21071 21.0391 2 20.5304 2 20V9C2 8.46957 2.21071 7.96086 2.58579 7.58579C2.96086 7.21071 3.46957 7 4 7H6" stroke="#6D7399" stroke-width="2.66667" stroke-linecap="round" stroke-linejoin="round"/>
</svg>
