<svg width="16" height="16" viewBox="0 0 16 16" fill="none" xmlns="http://www.w3.org/2000/svg">
<g clip-path="url(#clip0_179_77)">
<path d="M8 16C3.5815 16 0 12.4185 0 8C0 3.5815 3.5815 0 8 0C12.4185 0 16 3.5815 16 8C16 12.4185 12.4185 16 8 16ZM6.058 7.202L8 5.26L9.943 7.203L11.073 6.073L8 3L4.928 6.072L6.058 7.202ZM3 8L4.13 9.13L5.26 8L4.13 6.87L3 8ZM6.058 8.798L4.9265 9.9265L4.928 9.928L8 13L11.073 9.927V9.9265L9.943 8.7965L8 10.74L6.058 8.798ZM10.74 8L11.87 9.13L13 8L11.87 6.87L10.74 8ZM9.146 7.999H9.1465L8 6.853L7.1525 7.7L7.055 7.7975L6.8545 7.9985L6.8525 8L6.8545 8.0015L7.9995 9.147L9.1465 8.0005L9.147 8L9.146 7.9995V7.999Z" fill="black"/>
</g>
<defs>
<clipPath id="clip0_179_77">
<rect width="16" height="16" fill="white"/>
</clipPath>
</defs>
</svg>
