<svg width="16" height="16" viewBox="0 0 16 16" fill="none" xmlns="http://www.w3.org/2000/svg">
<g clip-path="url(#clip0_179_36)">
<path fill-rule="evenodd" clip-rule="evenodd" d="M8 16C3.5815 16 0 12.4185 0 8C0 3.5815 3.5815 0 8 0C12.4185 0 16 3.5815 16 8C16 12.4185 12.4185 16 8 16ZM11.997 8.1095L8.249 2L4.5 8.11L8.249 10.2865L11.997 8.1095ZM12 8.808L8.249 10.9835L4.5 8.8085L8.249 13.9975L12 8.808Z" fill="black"/>
<path d="M8.24902 2V6.435L11.9975 8.11L8.24902 2ZM8.24902 10.984V13.9975L12 8.808L8.24902 10.984Z" fill="black" fill-opacity="0.298"/>
<path d="M8.24902 10.2865L11.9975 8.11003L8.24902 6.43604V10.2865Z" fill="black" fill-opacity="0.801"/>
<path d="M4.5 8.11003L8.249 10.2865V6.43604L4.5 8.11003Z" fill="black" fill-opacity="0.298"/>
</g>
<defs>
<clipPath id="clip0_179_36">
<rect width="16" height="16" fill="white"/>
</clipPath>
</defs>
</svg>
