<svg width="28" height="28" viewBox="0 0 28 28" fill="none" xmlns="http://www.w3.org/2000/svg">
<g clip-path="url(#clip0_325_149)">
<path fill-rule="evenodd" clip-rule="evenodd" d="M14 28C6.26762 28 0 21.7324 0 14C0 6.26762 6.26762 0 14 0C21.7324 0 28 6.26762 28 14C28 21.7324 21.7324 28 14 28ZM20.9947 14.1916L14.4357 3.5L7.875 14.1925L14.4357 18.0014L20.9947 14.1916ZM21 15.414L14.4357 19.2211L7.875 15.4149L14.4357 24.4956L21 15.414Z" fill="#26BAE3"/>
<path d="M14.4358 3.5V11.2612L20.9956 14.1925L14.4358 3.5ZM14.4358 19.222V24.4956L21 15.414L14.4358 19.222Z" fill="#494D66"/>
<path d="M14.4358 18.0013L20.9956 14.1924L14.4358 11.2629V18.0013Z" fill="#494D66"/>
<path d="M7.875 14.1924L14.4357 18.0013V11.2629L7.875 14.1924Z" fill="#494D66"/>
</g>
<defs>
<clipPath id="clip0_325_149">
<rect width="28" height="28" fill="white"/>
</clipPath>
</defs>
</svg>
