<svg width="26" height="26" viewBox="0 0 26 26" fill="none" xmlns="http://www.w3.org/2000/svg">
<path d="M-nan -nanL1 24.2V1.8C1 1.58783 1.08429 1.38434 1.23431 1.23431C1.38434 1.08429 1.58783 1 1.8 1H24.2C24.4122 1 24.6157 1.08429 24.7657 1.23431C24.9157 1.38434 25 1.58783 25 1.8V24.2C25 24.4122 24.9157 24.6157 24.7657 24.7657C24.6157 24.9157 24.4122 25 24.2 25H1.8C1.58783 25 1.38434 24.9157 1.23431 24.7657C1.08429 24.6157 1 24.4122 1 24.2L-nan -nanL-nan -nanZ" stroke="#494D66" stroke-width="1.5"/>
<path d="M17.3333 17.8889C17.4807 17.8889 17.622 17.8304 17.7262 17.7262C17.8304 17.622 17.8889 17.4807 17.8889 17.3333C17.8889 17.186 17.8304 17.0447 17.7262 16.9405C17.622 16.8363 17.4807 16.7778 17.3333 16.7778C17.186 16.7778 17.0447 16.8363 16.9405 16.9405C16.8363 17.0447 16.7778 17.186 16.7778 17.3333C16.7778 17.4807 16.8363 17.622 16.9405 17.7262C17.0447 17.8304 17.186 17.8889 17.3333 17.8889ZM9.55556 10.1111C9.7029 10.1111 9.84421 10.0526 9.94839 9.94839C10.0526 9.84421 10.1111 9.7029 10.1111 9.55556C10.1111 9.40821 10.0526 9.2669 9.94839 9.16272C9.84421 9.05853 9.7029 9 9.55556 9C9.40821 9 9.2669 9.05853 9.16272 9.16272C9.05853 9.2669 9 9.40821 9 9.55556C9 9.7029 9.05853 9.84421 9.16272 9.94839C9.2669 10.0526 9.40821 10.1111 9.55556 10.1111Z" fill="black" stroke="#494D66" stroke-width="1.5" stroke-linecap="round" stroke-linejoin="round"/>
<path d="M17.8889 9L9 17.8889" stroke="#494D66" stroke-width="1.5" stroke-linecap="round" stroke-linejoin="round"/>
</svg>
