<svg width="40" height="40" viewBox="0 0 40 40" fill="none" xmlns="http://www.w3.org/2000/svg">
<rect x="0.25" y="0.25" width="39.5" height="39.5" rx="3.75" fill="#454961" stroke="#5B6080" stroke-width="0.5"/>
<path fill-rule="evenodd" clip-rule="evenodd" d="M9.40001 30.4H31V28.8H10.2V8H8.60001V29.6L9.40001 30.4ZM11.8 26.4V13.6L12.6 12.8H15.8L16.6 13.6V26.4L15.8 27.2H12.6L11.8 26.4ZM15 25.6V14.4H13.4V25.6H15ZM24.6 10.4V26.4L25.4 27.2H28.6L29.4 26.4V10.4L28.6 9.6H25.4L24.6 10.4ZM27.8 11.2V25.6H26.2V11.2H27.8ZM18.2 26.4V16.8L19 16H22.2L23 16.8V26.4L22.2 27.2H19L18.2 26.4ZM21.4 25.6V17.6H19.8V25.6H21.4Z" fill="#F1F1F3"/>
</svg>
