<svg width="24" height="24" viewBox="0 0 24 24" fill="none" xmlns="http://www.w3.org/2000/svg">
<path d="M24 19.6667C24 20.8159 23.5435 21.9181 22.7308 22.7308C21.9181 23.5435 20.8159 24 19.6667 24H4.33333C3.18406 24 2.08186 23.5435 1.2692 22.7308C0.456546 21.9181 0 20.8159 0 19.6667V4.33333C0 3.18406 0.456546 2.08186 1.2692 1.2692C2.08186 0.456546 3.18406 0 4.33333 0H19.6667C20.8159 0 21.9181 0.456546 22.7308 1.2692C23.5435 2.08186 24 3.18406 24 4.33333V19.6667ZM19.6667 22C20.2855 22 20.879 21.7542 21.3166 21.3166C21.7542 20.879 22 20.2855 22 19.6667V4.33333C22 3.71449 21.7542 3.121 21.3166 2.68342C20.879 2.24583 20.2855 2 19.6667 2H16.6667V22H19.6667ZM9.33333 2V7.33333H14.6667V2H9.33333ZM7.33333 2H4.33333C3.71449 2 3.121 2.24583 2.68342 2.68342C2.24583 3.121 2 3.71449 2 4.33333V7.33333H7.33333V2ZM7.33333 9.33333H2V14.6667H7.33333V9.33333ZM9.33333 14.6667H14.6667V9.33333H9.33333V14.6667ZM9.33333 16.6667V22H14.6667V16.6667H9.33333ZM7.33333 16.6667H2V19.6667C2 20.9547 3.04533 22 4.33333 22H7.33333V16.6667Z" fill="url(#paint0_linear_151_885)"/>
<defs>
<linearGradient id="paint0_linear_151_885" x1="0" y1="12" x2="24" y2="12" gradientUnits="userSpaceOnUse">
<stop stop-color="#F27AF4"/>
<stop offset="1" stop-color="#59E8EE"/>
</linearGradient>
</defs>
</svg>
