<svg width="24" height="24" viewBox="0 0 24 24" fill="none" xmlns="http://www.w3.org/2000/svg">
<path d="M6.072 1.55893C5.9256 1.61533 5.8704 1.64053 5.7372 1.72093C5.6676 1.76293 5.478 1.87333 5.316 1.96813C5.154 2.06293 4.9332 2.19253 4.824 2.25613C4.7148 2.31973 4.494 2.44933 4.332 2.54413C4.17 2.63893 3.9492 2.76853 3.84 2.83213C3.6504 2.94373 3.4044 3.08773 2.928 3.36613C2.6904 3.50533 2.3616 3.69733 1.974 3.92413C1.842 4.00213 1.5096 4.19533 1.236 4.35613C0.962397 4.51573 0.697197 4.67173 0.645597 4.70053C0.347997 4.87813 0.137997 5.16613 0.0383967 5.53813L0.0059967 5.65813V8.84413V12.0301L0.0395967 12.1501C0.106797 12.3889 0.209997 12.5821 0.373197 12.7753C0.502797 12.9277 0.639597 13.0333 0.911997 13.1905C0.974397 13.2265 1.1316 13.3177 1.26 13.3921C1.3884 13.4665 1.5564 13.5637 1.632 13.6081C1.7844 13.6957 2.6232 14.1829 2.982 14.3917C3.108 14.4649 3.24 14.5417 3.276 14.5621C3.312 14.5825 3.4476 14.6617 3.576 14.7361C3.7044 14.8105 3.8724 14.9077 3.948 14.9521C4.0236 14.9965 4.2432 15.1225 4.434 15.2341C4.626 15.3457 4.8444 15.4717 4.92 15.5161C4.9956 15.5605 5.1636 15.6577 5.292 15.7321C5.9292 16.1029 5.9628 16.1197 6.1668 16.1713C6.4812 16.2517 6.8556 16.2217 7.1784 16.0921C7.2444 16.0657 7.4424 15.9601 7.6236 15.8545C7.938 15.6709 8.1552 15.5449 9.024 15.0385C9.2448 14.9101 9.54 14.7385 9.678 14.6581C10.4412 14.2129 10.6752 14.0785 11.58 13.5541C12.1248 13.2385 12.6204 12.9517 12.6804 12.9157C12.7416 12.8809 12.8448 12.8209 12.9084 12.7849C12.9732 12.7477 13.14 12.6505 13.278 12.5701C13.5564 12.4081 13.7652 12.2869 15.114 11.5021C15.6228 11.2057 16.1628 10.8913 16.314 10.8037C16.4664 10.7149 16.6224 10.6273 16.662 10.6081C17.052 10.4221 17.5524 10.4269 17.988 10.6225C18.024 10.6393 18.3 10.7953 18.6 10.9705C18.9 11.1457 19.3812 11.4253 19.668 11.5921C20.6256 12.1489 20.8248 12.2665 20.886 12.3121C21.1632 12.5173 21.366 12.8293 21.4584 13.1953L21.4848 13.3021L21.4884 15.0301C21.4932 16.9513 21.4956 16.8745 21.4128 17.1229C21.3156 17.4145 21.1248 17.6773 20.874 17.8669C20.8284 17.9017 20.5908 18.0493 20.346 18.1945C20.1024 18.3409 19.7508 18.5497 19.566 18.6601C19.3812 18.7705 19.0416 18.9721 18.81 19.1101C18.5796 19.2469 18.336 19.3921 18.27 19.4317C17.9124 19.6489 17.688 19.7137 17.3412 19.7005C17.1648 19.6945 17.0676 19.6789 16.914 19.6321C16.7124 19.5697 16.7496 19.5901 15.258 18.7225C14.6556 18.3721 14.4492 18.2521 14.19 18.1021C14.0448 18.0181 13.8996 17.9305 13.866 17.9089C13.5312 17.6869 13.2984 17.3305 13.2168 16.9117C13.1976 16.8181 13.1952 16.6825 13.1892 15.7261L13.182 14.6449L12.048 15.3025C11.424 15.6649 10.8912 15.9721 10.8624 15.9865L10.8108 16.0129L10.8156 17.1781L10.8192 18.3421L10.8504 18.4561C10.9572 18.8401 11.178 19.1509 11.4984 19.3657C11.5464 19.3981 11.6748 19.4761 11.784 19.5385C11.8932 19.6021 12.0684 19.7029 12.174 19.7641C12.2796 19.8265 12.396 19.8937 12.432 19.9141C12.468 19.9345 12.6036 20.0137 12.732 20.0881C12.8604 20.1625 13.0284 20.2597 13.104 20.3041C13.1796 20.3485 13.3992 20.4745 13.59 20.5861C13.782 20.6977 14.0004 20.8237 14.076 20.8681C14.1516 20.9125 14.3196 21.0097 14.448 21.0841C14.5764 21.1585 14.712 21.2377 14.748 21.2581C14.784 21.2785 14.9196 21.3577 15.048 21.4321C15.1764 21.5065 15.3444 21.6037 15.42 21.6481C15.4956 21.6925 15.6936 21.8065 15.858 21.9025C16.0236 21.9973 16.2612 22.1353 16.386 22.2085C16.8588 22.4833 16.7868 22.4641 17.3592 22.4641C17.982 22.4641 17.8404 22.5133 18.756 21.9817C18.8976 21.8989 19.2036 21.7225 19.434 21.5881C19.6656 21.4537 19.9704 21.2773 20.112 21.1945C20.2536 21.1129 20.6052 20.9089 20.892 20.7421C21.1788 20.5753 21.582 20.3425 21.786 20.2237C21.9912 20.1049 22.3932 19.8709 22.68 19.7053C22.9668 19.5385 23.2404 19.3777 23.286 19.3465C23.3952 19.2745 23.5956 19.0741 23.6724 18.9601C23.7852 18.7921 23.8596 18.6181 23.9124 18.4021C23.9316 18.3241 23.934 18.0949 23.9376 15.1801C23.94 12.9853 23.9364 12.0121 23.928 11.9425C23.8884 11.6341 23.7324 11.3185 23.5068 11.0869C23.3688 10.9465 23.268 10.8745 22.968 10.7005C22.8264 10.6189 22.608 10.4929 22.482 10.4197C22.3572 10.3465 22.1352 10.2181 21.99 10.1341C21.8448 10.0501 21.624 9.92173 21.498 9.84853C21.3732 9.77533 21.2076 9.68053 21.132 9.63613C21.0108 9.56533 20.7408 9.40933 19.68 8.79373C19.5384 8.71093 19.2336 8.53333 19.002 8.40013C17.9976 7.81573 17.9892 7.81213 17.7936 7.75933C17.4252 7.66093 17.0052 7.70653 16.6524 7.88293C16.5912 7.91293 16.3428 8.05693 16.098 8.20093C15.8544 8.34613 15.552 8.52493 15.426 8.59813C15.3012 8.67253 15.0444 8.82373 14.856 8.93413C14.6676 9.04453 14.3652 9.22333 14.184 9.33013C14.0028 9.43693 13.7004 9.61573 13.512 9.72613C13.17 9.92773 13.038 10.0033 12.474 10.3141C12.3096 10.4053 12.1044 10.5181 12.018 10.5661C11.9328 10.6141 11.7024 10.7413 11.508 10.8481C11.3136 10.9561 11.0568 11.0977 10.938 11.1637C10.8192 11.2297 9.9504 11.7469 9.006 12.3121C8.0628 12.8785 7.2576 13.3573 7.218 13.3777C7.0356 13.4677 6.8244 13.5145 6.594 13.5157C6.42 13.5157 6.2952 13.5001 6.144 13.4569C5.9112 13.3897 5.934 13.4029 4.8 12.7165C4.6584 12.6313 4.3884 12.4681 4.2 12.3541C2.94 11.5933 2.9892 11.6245 2.862 11.5057C2.6412 11.2993 2.4828 11.0161 2.4096 10.6945L2.3832 10.5781L2.3784 8.95813C2.376 7.93213 2.3796 7.28053 2.3868 7.18213C2.4168 6.79453 2.5596 6.48253 2.8344 6.20653C2.9628 6.07693 3.0804 5.99653 3.456 5.77813C3.8292 5.56093 4.3356 5.26693 4.674 5.07013C5.5236 4.57573 5.826 4.40173 5.8992 4.36453C6.2172 4.20613 6.642 4.17733 7.014 4.29013C7.1784 4.33933 7.2768 4.38613 7.4916 4.51573C7.6044 4.58413 7.8012 4.70293 7.926 4.77853C8.6316 5.20573 9.0696 5.47093 9.504 5.73253C10.1088 6.09733 10.1592 6.13213 10.278 6.24853C10.4472 6.41293 10.5612 6.58693 10.6428 6.80413C10.7376 7.05733 10.7328 6.97333 10.7364 8.25973C10.7388 8.89333 10.746 9.40813 10.7508 9.40573C10.7568 9.40333 11.2932 9.09373 11.9448 8.71813L13.128 8.03413V6.90013C13.128 5.65813 13.128 5.65573 13.056 5.43253C12.984 5.20693 12.8532 4.99693 12.6756 4.81933C12.5076 4.65253 12.5904 4.70413 10.884 3.70213C10.5372 3.49813 10.0596 3.21733 9.822 3.07813C9.5844 2.93773 9.1068 2.65693 8.76 2.45413C8.4132 2.25013 7.9656 1.98733 7.7652 1.86973C7.1256 1.49173 7.2288 1.52413 6.6384 1.52413L6.162 1.52533L6.072 1.55893Z" fill="#808080"/>
</svg>
