<svg width="161" height="28" viewBox="0 0 161 28" fill="none" xmlns="http://www.w3.org/2000/svg">
<path d="M39.9658 21.5385L45.8769 4.02058H49.6821L55.3778 21.5385H51.812L50.5675 17.6616H44.8239L43.5556 21.5385H39.9658ZM45.7094 14.6941H49.7778L47.8154 8.42399L45.7094 14.6941Z" fill="white"/>
<path d="M56.7989 21.5385V8.83083H59.6228L60.1493 10.4342C61.3459 9.28553 62.5584 8.71117 63.7869 8.71117C64.473 8.71117 64.9436 8.75904 65.1989 8.85476V12.0855C64.7522 12.0377 64.1379 12.0137 63.3562 12.0137C62.6063 12.0137 61.9761 12.1174 61.4656 12.3248C60.971 12.5163 60.5322 12.8832 60.1493 13.4257V21.5385H56.7989Z" fill="white"/>
<path d="M66.7782 21.5385V8.83083H69.6021L70.1286 10.4342C71.3252 9.28553 72.5377 8.71117 73.7662 8.71117C74.4523 8.71117 74.9229 8.75904 75.1782 8.85476V12.0855C74.7315 12.0377 74.1172 12.0137 73.3355 12.0137C72.5856 12.0137 71.9554 12.1174 71.4449 12.3248C70.9503 12.5163 70.5115 12.8832 70.1286 13.4257V21.5385H66.7782Z" fill="white"/>
<path d="M76.3985 18.3077V17.1112C76.3985 16.6166 76.4623 16.1699 76.59 15.771C76.7336 15.3721 76.9489 15.0052 77.2361 14.6701C77.5233 14.3351 77.9062 14.0798 78.3848 13.9043C78.8794 13.7129 79.4618 13.6172 80.1318 13.6172C80.7541 13.6172 81.3683 13.6251 81.9746 13.6411C82.5968 13.6411 83.227 13.6331 83.8652 13.6172C83.8811 13.0907 83.8811 12.8194 83.8652 12.8035C83.8652 12.4684 83.8253 12.1972 83.7455 11.9898C83.6817 11.7824 83.57 11.6229 83.4105 11.5112C83.2509 11.3995 83.0754 11.3277 82.884 11.2958C82.6925 11.2639 82.4532 11.2479 82.166 11.2479C81.129 11.2479 79.3501 11.3357 76.8293 11.5112V9.45305C78.2492 8.89465 80.1797 8.60747 82.6207 8.59151C84.0885 8.59151 85.2213 8.90263 86.019 9.52485C86.8167 10.1311 87.2156 11.1841 87.2156 12.6838V21.5385H84.5592L83.8652 20.1505C83.8014 20.2622 83.5939 20.4377 83.2429 20.677C82.9079 20.9003 82.4293 21.1317 81.8071 21.371C81.1848 21.5944 80.5786 21.6981 79.9883 21.6821C78.8395 21.6502 77.9541 21.3072 77.3318 20.653C76.7096 19.983 76.3985 19.2012 76.3985 18.3077ZM79.7489 17.8291C79.7489 18.3077 79.8526 18.6268 80.06 18.7864C80.2675 18.93 80.5626 19.0018 80.9455 19.0018C81.137 19.0018 81.3364 18.9858 81.5438 18.9539C81.7512 18.906 81.9427 18.8582 82.1182 18.8103C82.3096 18.7465 82.4931 18.6827 82.6686 18.6189C82.8441 18.5391 83.0036 18.4673 83.1472 18.4035C83.2908 18.3237 83.4105 18.2599 83.5062 18.212C83.6179 18.1482 83.7056 18.1003 83.7694 18.0684C83.8333 18.0206 83.8652 17.9966 83.8652 17.9966V15.6753L80.778 15.9146C80.5706 15.9305 80.3951 15.9864 80.2515 16.0821C80.1079 16.1619 79.9962 16.2656 79.9165 16.3932C79.8526 16.5209 79.8048 16.6485 79.7729 16.7761C79.7569 16.9038 79.7489 17.0473 79.7489 17.2069V17.8291Z" fill="white"/>
<path d="M88.4733 8.83083H91.9913L94.193 17.7334C94.2249 17.861 94.2648 17.9807 94.3126 18.0924C94.3764 18.204 94.4482 18.2918 94.528 18.3556C94.6078 18.4194 94.6796 18.4753 94.7434 18.5231C94.8072 18.555 94.879 18.5869 94.9588 18.6189C95.0545 18.6348 95.1263 18.6428 95.1742 18.6428C95.222 18.6428 95.2779 18.6508 95.3417 18.6667C95.4215 18.6667 95.4613 18.6667 95.4613 18.6667L97.9981 8.83083H101.492L97.0887 25.559L95.3417 28H92.9485L94.7434 21.5385C92.797 21.5385 91.5366 20.4616 90.9622 18.3077L88.4733 8.83083Z" fill="white"/>
<path d="M103.099 9.90775V8.40006C103.099 7.72998 103.178 7.13169 103.338 6.60519C103.497 6.0787 103.713 5.64793 103.984 5.31288C104.255 4.97784 104.59 4.70662 104.989 4.49921C105.404 4.27585 105.835 4.12428 106.281 4.04451C106.744 3.94878 107.263 3.89294 107.837 3.87699C109.05 3.84508 110.302 3.90092 111.594 4.04451C112.887 4.1881 113.892 4.3636 114.61 4.571V7.20348C112.791 7.04394 110.836 6.96417 108.746 6.96417C107.901 6.94821 107.303 7.04394 106.952 7.25135C106.616 7.4428 106.449 7.91345 106.449 8.66331V9.52485C106.449 10.1949 106.585 10.6417 106.856 10.865C107.127 11.0884 107.614 11.2001 108.316 11.2001H111.092C111.506 11.2001 111.889 11.2399 112.24 11.3197C112.607 11.3995 112.918 11.5112 113.174 11.6548C113.445 11.7983 113.684 11.9659 113.892 12.1573C114.115 12.3488 114.299 12.5642 114.442 12.8035C114.602 13.0428 114.729 13.2901 114.825 13.5454C114.937 13.7847 115.016 14.0399 115.064 14.3112C115.128 14.5824 115.168 14.8456 115.184 15.1009C115.216 15.3402 115.232 15.5875 115.232 15.8428V17.0154C115.232 17.7812 115.136 18.4513 114.945 19.0257C114.753 19.6001 114.506 20.0548 114.203 20.3898C113.916 20.7248 113.549 20.9961 113.102 21.2035C112.671 21.4109 112.24 21.5465 111.81 21.6103C111.379 21.6901 110.908 21.73 110.398 21.73C107.51 21.73 105.252 21.4906 103.625 21.012V18.3795C105.38 18.555 107.414 18.6428 109.728 18.6428C110.031 18.6428 110.286 18.6268 110.493 18.5949C110.717 18.563 110.94 18.4992 111.163 18.4035C111.403 18.3077 111.578 18.1562 111.69 17.9488C111.818 17.7254 111.881 17.4542 111.881 17.1351V16.2018C111.881 15.6434 111.77 15.2285 111.546 14.9573C111.323 14.6861 110.908 14.5505 110.302 14.5505H107.622C104.606 14.5345 103.099 12.987 103.099 9.90775Z" fill="white"/>
<path d="M116.401 8.83083H119.99L122.527 17.6137L124.801 8.83083H128.151L127.266 12.2531L129.372 17.6137L131.884 8.83083H135.474L131.358 21.5385H127.625L125.71 16.9436L124.274 21.5385H120.469L116.401 8.83083Z" fill="white"/>
<path d="M136.531 18.3077V17.1112C136.531 16.6166 136.595 16.1699 136.723 15.771C136.866 15.3721 137.082 15.0052 137.369 14.6701C137.656 14.3351 138.039 14.0798 138.518 13.9043C139.012 13.7129 139.595 13.6172 140.265 13.6172C140.887 13.6172 141.501 13.6251 142.107 13.6411C142.73 13.6411 143.36 13.6331 143.998 13.6172C144.014 13.0907 144.014 12.8194 143.998 12.8035C143.998 12.4684 143.958 12.1972 143.878 11.9898C143.815 11.7824 143.703 11.6229 143.543 11.5112C143.384 11.3995 143.208 11.3277 143.017 11.2958C142.825 11.2639 142.586 11.2479 142.299 11.2479C141.262 11.2479 139.483 11.3357 136.962 11.5112V9.45305C138.382 8.89465 140.313 8.60747 142.754 8.59151C144.221 8.59151 145.354 8.90263 146.152 9.52485C146.95 10.1311 147.348 11.1841 147.348 12.6838V21.5385H144.692L143.998 20.1505C143.934 20.2622 143.727 20.4377 143.376 20.677C143.041 20.9003 142.562 21.1317 141.94 21.371C141.318 21.5944 140.711 21.6981 140.121 21.6821C138.972 21.6502 138.087 21.3072 137.465 20.653C136.842 19.983 136.531 19.2012 136.531 18.3077ZM139.882 17.8291C139.882 18.3077 139.985 18.6268 140.193 18.7864C140.4 18.93 140.695 19.0018 141.078 19.0018C141.27 19.0018 141.469 18.9858 141.677 18.9539C141.884 18.906 142.075 18.8582 142.251 18.8103C142.442 18.7465 142.626 18.6827 142.801 18.6189C142.977 18.5391 143.136 18.4673 143.28 18.4035C143.424 18.3237 143.543 18.2599 143.639 18.212C143.751 18.1482 143.838 18.1003 143.902 18.0684C143.966 18.0206 143.998 17.9966 143.998 17.9966V15.6753L140.911 15.9146C140.703 15.9305 140.528 15.9864 140.384 16.0821C140.241 16.1619 140.129 16.2656 140.049 16.3932C139.985 16.5209 139.938 16.6485 139.906 16.7761C139.89 16.9038 139.882 17.0473 139.882 17.2069V17.8291Z" fill="white"/>
<path d="M149.3 28V8.83083H152.052L152.627 10.0992C153.089 9.73225 153.672 9.40519 154.374 9.11801C155.092 8.83083 155.794 8.68724 156.48 8.68724C157.102 8.68724 157.644 8.79094 158.107 8.99835C158.586 9.20576 158.977 9.49294 159.28 9.85989C159.599 10.2268 159.862 10.6815 160.069 11.224C160.277 11.7664 160.42 12.3568 160.5 12.9949C160.58 13.6331 160.62 14.3431 160.62 15.1248C160.62 15.779 160.596 16.3693 160.548 16.8958C160.516 17.4223 160.444 17.9488 160.333 18.4753C160.221 18.9858 160.061 19.4325 159.854 19.8154C159.663 20.1983 159.415 20.5414 159.112 20.8445C158.825 21.1317 158.458 21.355 158.011 21.5146C157.565 21.6582 157.054 21.73 156.48 21.73C155.905 21.73 155.259 21.6582 154.541 21.5146C153.823 21.355 153.185 21.1556 152.627 20.9163V28H149.3ZM152.627 18.6189C153.456 18.9379 154.453 19.0975 155.618 19.0975C156.001 19.0975 156.304 19.0097 156.528 18.8342C156.751 18.6428 156.926 18.2599 157.054 17.6855C157.198 17.1112 157.269 16.3055 157.269 15.2684C157.269 13.8964 157.134 12.9391 156.863 12.3966C156.591 11.8382 156.177 11.559 155.618 11.559C154.437 11.559 153.44 11.8143 152.627 12.3248V18.6189Z" fill="white"/>
<path d="M0 20.9801V5.08954C0 4.46731 0.0638176 3.90093 0.191453 3.39039C0.319088 2.8639 0.526495 2.38526 0.813675 1.9545C1.11681 1.52373 1.5396 1.18868 2.08205 0.949369C2.6245 0.710052 3.27863 0.590393 4.04444 0.590393H6.07863V3.41432H4.83418C4.35555 3.41432 3.9886 3.58982 3.73333 3.94082C3.47806 4.27586 3.35042 4.79438 3.35042 5.49637V20.8605C3.35042 22.2485 3.84501 22.9425 4.83418 22.9425H6.07863V25.7664H4.04444C3.3584 25.7664 2.76011 25.6548 2.24957 25.4314C1.75498 25.224 1.3641 24.9607 1.07692 24.6417C0.805697 24.3385 0.582336 23.9556 0.406837 23.4929C0.231339 23.0462 0.119658 22.6234 0.0717947 22.2246C0.0239316 21.8417 0 21.4268 0 20.9801Z" fill="white"/>
<path d="M34.4296 20.9801V5.08954C34.4296 4.46731 34.3658 3.90093 34.2382 3.39039C34.1105 2.8639 33.9031 2.38526 33.616 1.9545C33.3128 1.52373 32.89 1.18868 32.3476 0.949369C31.8051 0.710052 31.151 0.590393 30.3852 0.590393H28.351V3.41432H29.5954C30.0741 3.41432 30.441 3.58982 30.6963 3.94082C30.9516 4.27586 31.0792 4.79438 31.0792 5.49637V20.8605C31.0792 22.2485 30.5846 22.9425 29.5954 22.9425H28.351V25.7664H30.3852C31.0712 25.7664 31.6695 25.6548 32.1801 25.4314C32.6746 25.224 33.0655 24.9607 33.3527 24.6417C33.6239 24.3385 33.8473 23.9556 34.0228 23.4929C34.1983 23.0462 34.31 22.6234 34.3578 22.2246C34.4057 21.8417 34.4296 21.4268 34.4296 20.9801Z" fill="white"/>
<path d="M17.6136 2.12726C11.7424 2.12726 6.97736 6.89231 6.97736 12.7635C6.97736 18.6347 11.7424 23.3998 17.6136 23.3998C23.4848 23.3998 28.2499 18.6347 28.2499 12.7635C28.2499 6.89231 23.4848 2.12726 17.6136 2.12726ZM17.6136 21.2725C12.923 21.2725 9.10461 17.4541 9.10461 12.7635C9.10461 8.07293 12.923 4.25451 17.6136 4.25451C22.3042 4.25451 26.1226 8.07293 26.1226 12.7635C26.1226 17.4541 22.3042 21.2725 17.6136 21.2725ZM20.8045 6.91358V9.57265H16.55V11.6999H20.8045V14.359L24.5272 10.6363L20.8045 6.91358ZM14.4227 11.1681L10.7001 14.8908L14.4227 18.6135V15.9544H18.6773V13.8272H14.4227V11.1681Z" fill="white"/>
</svg>
