<svg width="16" height="14" viewBox="0 0 16 14" fill="none" xmlns="http://www.w3.org/2000/svg">
<path fill-rule="evenodd" clip-rule="evenodd" d="M-3.06001e-07 7.00001C-3.17592e-07 6.73482 0.105345 6.48049 0.29286 6.29298C0.480376 6.10546 0.734701 6.00012 0.999888 6.00012L12.5846 6.00012L8.29107 1.7086C8.19811 1.61563 8.12436 1.50527 8.07405 1.3838C8.02374 1.26234 7.99784 1.13215 7.99784 1.00068C7.99784 0.869203 8.02374 0.739017 8.07405 0.617552C8.12436 0.496087 8.19811 0.385721 8.29107 0.292756C8.38404 0.19979 8.4944 0.126046 8.61587 0.0757328C8.73733 0.0254208 8.86752 -0.000474364 8.99899 -0.000474369C9.13047 -0.000474375 9.26065 0.0254207 9.38212 0.0757328C9.50358 0.126046 9.61395 0.19979 9.70692 0.292756L15.7062 6.29208C15.7994 6.38497 15.8732 6.49531 15.9236 6.61678C15.9741 6.73826 16 6.86849 16 7.00001C16 7.13153 15.9741 7.26175 15.9236 7.38323C15.8732 7.50471 15.7994 7.61505 15.7062 7.70793L9.70692 13.7073C9.61395 13.8002 9.50358 13.874 9.38212 13.9243C9.26065 13.9746 9.13047 14.0005 8.99899 14.0005C8.86752 14.0005 8.73734 13.9746 8.61587 13.9243C8.4944 13.874 8.38404 13.8002 8.29107 13.7073C8.10332 13.5195 7.99784 13.2649 7.99784 12.9993C7.99784 12.8679 8.02374 12.7377 8.07405 12.6162C8.12436 12.4947 8.19811 12.3844 8.29107 12.2914L12.5846 7.99989L0.999888 7.9999C0.734701 7.9999 0.480376 7.89455 0.29286 7.70703C0.105345 7.51952 -2.94409e-07 7.26519 -3.06001e-07 7.00001Z" fill="#494D66"/>
</svg>
