<svg width="16" height="16" viewBox="0 0 16 16" fill="none" xmlns="http://www.w3.org/2000/svg">
<path d="M13.6937 7.84372L8.19368 0.843719C8.17023 0.814967 8.14068 0.791794 8.10717 0.77588C8.07366 0.759966 8.03703 0.751709 7.99993 0.751709C7.96283 0.751709 7.9262 0.759966 7.89269 0.77588C7.85917 0.791794 7.82962 0.814967 7.80618 0.843719L2.30618 7.84372C2.26957 7.88755 2.24951 7.94285 2.24951 7.99997C2.24951 8.05708 2.26957 8.11238 2.30618 8.15622L7.80618 15.1562C7.82962 15.185 7.85917 15.2081 7.89269 15.2241C7.9262 15.24 7.96283 15.2482 7.99993 15.2482C8.03703 15.2482 8.07366 15.24 8.10717 15.2241C8.14068 15.2081 8.17023 15.185 8.19368 15.1562L13.6937 8.15622C13.7303 8.11238 13.7503 8.05708 13.7503 7.99997C13.7503 7.94285 13.7303 7.88755 13.6937 7.84372ZM8.24993 1.72497L13.1062 7.90622L8.24993 10.1125V1.72497ZM7.74993 10.1125L2.89368 7.90622L7.74993 1.72497V10.1125ZM7.74993 10.6625V14.275L3.33118 8.64997L7.74993 10.6625ZM8.24993 10.6625L12.6687 8.64997L8.24993 14.275V10.6625Z" fill="#494D66"/>
</svg>
