<svg width="7" height="14" viewBox="0 0 7 14" fill="none" xmlns="http://www.w3.org/2000/svg">
<path fill-rule="evenodd" clip-rule="evenodd" d="M2.64672 0.933394C2.74047 0.816352 2.86755 0.75061 3.00005 0.75061C3.13255 0.75061 3.25963 0.816352 3.35338 0.933394L5.85338 4.05839C5.9417 4.17687 5.98978 4.33358 5.9875 4.4955C5.98521 4.65741 5.93274 4.8119 5.84113 4.92641C5.74952 5.04092 5.62593 5.10652 5.4964 5.10937C5.36686 5.11223 5.2415 5.05213 5.14672 4.94173L3.00005 2.25839L0.853382 4.94173C0.758598 5.05213 0.633234 5.11223 0.5037 5.10937C0.374166 5.10652 0.250576 5.04092 0.158967 4.92641C0.0673583 4.8119 0.0148838 4.65741 0.0125984 4.4955C0.0103129 4.33358 0.0583948 4.17687 0.146715 4.05839L2.64672 0.933394ZM0.146715 9.0584C0.240465 8.94135 0.367548 8.87561 0.500048 8.87561C0.632549 8.87561 0.759631 8.94135 0.853382 9.0584L3.00005 11.7417L5.14672 9.0584C5.19249 8.99699 5.24769 8.94774 5.30902 8.91358C5.37036 8.87942 5.43657 8.86105 5.5037 8.85957C5.57084 8.85809 5.63752 8.87352 5.69978 8.90496C5.76204 8.93639 5.81859 8.98318 5.86607 9.04253C5.91355 9.10188 5.95098 9.17257 5.97613 9.2504C6.00128 9.32822 6.01363 9.41158 6.01244 9.4955C6.01126 9.57942 5.99656 9.66218 5.96924 9.73884C5.94191 9.81551 5.90251 9.88451 5.85338 9.94173L3.35338 13.0667C3.25963 13.1838 3.13255 13.2495 3.00005 13.2495C2.86755 13.2495 2.74047 13.1838 2.64672 13.0667L0.146715 9.94173C0.0530812 9.82454 0.000488281 9.66569 0.000488281 9.50006C0.000488281 9.33444 0.0530812 9.17558 0.146715 9.0584Z" fill="#494D66"/>
</svg>
