<svg width="14" height="16" viewBox="0 0 14 16" fill="none" xmlns="http://www.w3.org/2000/svg">
<path d="M4.66666 2.66671V10.6667C4.66666 11.0203 4.80713 11.3595 5.05718 11.6095C5.30723 11.8596 5.64637 12 5.99999 12H11.3333C11.6869 12 12.0261 11.8596 12.2761 11.6095C12.5262 11.3595 12.6667 11.0203 12.6667 10.6667V4.82804C12.6666 4.65041 12.6311 4.47458 12.5622 4.31087C12.4933 4.14716 12.3923 3.99887 12.2653 3.87471L10.0553 1.71337C9.80623 1.46981 9.4717 1.33342 9.12332 1.33337H5.99999C5.64637 1.33337 5.30723 1.47385 5.05718 1.7239C4.80713 1.97395 4.66666 2.31309 4.66666 2.66671V2.66671Z" stroke="#494D66" stroke-width="1.4" stroke-linecap="round" stroke-linejoin="round"/>
<path d="M9.66666 12.0001V13.3334C9.66666 13.687 9.52618 14.0262 9.27613 14.2762C9.02608 14.5263 8.68695 14.6667 8.33332 14.6667H2.99999C2.64637 14.6667 2.30723 14.5263 2.05718 14.2762C1.80713 14.0262 1.66666 13.687 1.66666 13.3334V6.00008C1.66666 5.64646 1.80713 5.30732 2.05718 5.05727C2.30723 4.80722 2.64637 4.66675 2.99999 4.66675H4.33332" stroke="#494D66" stroke-width="1.4" stroke-linecap="round" stroke-linejoin="round"/>
</svg>
