<svg width="28" height="29" viewBox="0 0 28 29" fill="none" xmlns="http://www.w3.org/2000/svg">
<path d="M26.9 18.5532L24.8531 16.8032C24.95 16.2094 25 15.6032 25 14.9969C25 14.3907 24.95 13.7844 24.8531 13.1907L26.9 11.4407C27.0544 11.3085 27.1649 11.1325 27.2168 10.936C27.2687 10.7395 27.2596 10.5318 27.1906 10.3407L27.1625 10.2594C26.599 8.68451 25.7552 7.22453 24.6719 5.95005L24.6156 5.88442C24.4842 5.7299 24.309 5.61882 24.1132 5.56582C23.9174 5.51283 23.7102 5.5204 23.5187 5.58755L20.9781 6.49067C20.0406 5.72192 18.9937 5.11567 17.8625 4.69067L17.3719 2.03442C17.3349 1.83456 17.2379 1.65068 17.0939 1.50723C16.9499 1.36378 16.7656 1.26754 16.5656 1.2313L16.4813 1.21567C14.8531 0.921924 13.1406 0.921924 11.5125 1.21567L11.4281 1.2313C11.2281 1.26754 11.0439 1.36378 10.8999 1.50723C10.7558 1.65068 10.6589 1.83456 10.6219 2.03442L10.1281 4.70317C9.0059 5.12826 7.96083 5.73419 7.03438 6.49692L4.475 5.58755C4.28364 5.51987 4.07622 5.51202 3.8803 5.56505C3.68437 5.61808 3.50922 5.72947 3.37813 5.88442L3.32188 5.95005C2.23983 7.22544 1.39618 8.68516 0.83125 10.2594L0.803125 10.3407C0.6625 10.7313 0.778125 11.1688 1.09375 11.4407L3.16563 13.2094C3.06875 13.7969 3.02188 14.3969 3.02188 14.9938C3.02188 15.5938 3.06875 16.1938 3.16563 16.7782L1.09375 18.5469C0.939362 18.6791 0.828864 18.8551 0.77695 19.0516C0.725036 19.2481 0.734166 19.4557 0.803125 19.6469L0.83125 19.7282C1.39688 21.3032 2.23438 22.7563 3.32188 24.0375L3.37813 24.1032C3.50955 24.2577 3.6847 24.3688 3.88051 24.4218C4.07631 24.4748 4.28358 24.4672 4.475 24.4L7.03438 23.4907C7.96563 24.2563 9.00625 24.8625 10.1281 25.2844L10.6219 27.9532C10.6589 28.153 10.7558 28.3369 10.8999 28.4804C11.0439 28.6238 11.2281 28.7201 11.4281 28.7563L11.5125 28.7719C13.1556 29.0672 14.8382 29.0672 16.4813 28.7719L16.5656 28.7563C16.7656 28.7201 16.9499 28.6238 17.0939 28.4804C17.2379 28.3369 17.3349 28.153 17.3719 27.9532L17.8625 25.2969C18.9933 24.873 20.0461 24.2648 20.9781 23.4969L23.5187 24.4C23.7101 24.4677 23.9175 24.4756 24.1135 24.4226C24.3094 24.3695 24.4845 24.2581 24.6156 24.1032L24.6719 24.0375C25.7594 22.7532 26.5969 21.3032 27.1625 19.7282L27.1906 19.6469C27.3312 19.2626 27.2156 18.8251 26.9 18.5532ZM22.6344 13.5594C22.7125 14.0313 22.7531 14.5157 22.7531 15C22.7531 15.4844 22.7125 15.9688 22.6344 16.4407L22.4281 17.6938L24.7625 19.6907C24.4086 20.506 23.9619 21.2777 23.4312 21.9907L20.5312 20.9625L19.55 21.7688C18.8031 22.3813 17.9719 22.8626 17.0719 23.2001L15.8813 23.6469L15.3219 26.6782C14.4393 26.7782 13.5482 26.7782 12.6656 26.6782L12.1062 23.6407L10.925 23.1875C10.0344 22.85 9.20625 22.3688 8.46563 21.7594L7.48438 20.9501L4.56563 21.9875C4.03438 21.2719 3.59063 20.5 3.23438 19.6875L5.59375 17.6719L5.39063 16.4219C5.31563 15.9563 5.275 15.475 5.275 15C5.275 14.5219 5.3125 14.0438 5.39063 13.5782L5.59375 12.3282L3.23438 10.3125C3.5875 9.49692 4.03438 8.72817 4.56563 8.01255L7.48438 9.05005L8.46563 8.24067C9.20625 7.6313 10.0344 7.15005 10.925 6.81255L12.1094 6.36567L12.6687 3.32817C13.5469 3.22817 14.4438 3.22817 15.325 3.32817L15.8844 6.35942L17.075 6.8063C17.9719 7.1438 18.8062 7.62505 19.5531 8.23755L20.5344 9.0438L23.4344 8.01567C23.9656 8.7313 24.4094 9.50317 24.7656 10.3157L22.4312 12.3125L22.6344 13.5594ZM14 9.18755C10.9625 9.18755 8.5 11.65 8.5 14.6875C8.5 17.725 10.9625 20.1875 14 20.1875C17.0375 20.1875 19.5 17.725 19.5 14.6875C19.5 11.65 17.0375 9.18755 14 9.18755ZM16.475 17.1625C16.1504 17.4881 15.7646 17.7463 15.3398 17.9222C14.9151 18.0981 14.4597 18.1883 14 18.1875C13.0656 18.1875 12.1875 17.8219 11.525 17.1625C11.1994 16.8379 10.9413 16.4521 10.7654 16.0274C10.5895 15.6026 10.4993 15.1473 10.5 14.6875C10.5 13.7532 10.8656 12.875 11.525 12.2125C12.1875 11.55 13.0656 11.1875 14 11.1875C14.9344 11.1875 15.8125 11.55 16.475 12.2125C16.8006 12.5372 17.0587 12.923 17.2346 13.3477C17.4105 13.7725 17.5007 14.2278 17.5 14.6875C17.5 15.6219 17.1344 16.5 16.475 17.1625Z" fill="#5F6285"/>
</svg>
