<svg width="24" height="14" viewBox="0 0 24 14" fill="none" xmlns="http://www.w3.org/2000/svg">
<path d="M24 0H17V2H20.59L13 9.59L8.71 5.29C8.61704 5.19627 8.50644 5.12188 8.38458 5.07111C8.26272 5.02034 8.13201 4.9942 8 4.9942C7.86799 4.9942 7.73728 5.02034 7.61542 5.07111C7.49356 5.12188 7.38296 5.19627 7.29 5.29L0 12.59L1.41 14L8 7.41L12.29 11.71C12.383 11.8037 12.4936 11.8781 12.6154 11.9289C12.7373 11.9797 12.868 12.0058 13 12.0058C13.132 12.0058 13.2627 11.9797 13.3846 11.9289C13.5064 11.8781 13.617 11.8037 13.71 11.71L22 3.41V7H24V0Z" fill="#323546"/>
</svg>
